<svg width="270" height="270" viewBox="0 0 270 270" fill="none" xmlns="http://www.w3.org/2000/svg">
<g clip-path="url(#clip0_1_16)">
<rect width="270" height="270" fill="#E6DEE6"/>
<mask id="path-1-outside-1_1_16" maskUnits="userSpaceOnUse" x="0" y="13" width="187" height="225" fill="black">
<rect fill="white" y="13" width="187" height="225"/>
<path d="M2.45909 14.9769H28.1172L48.2075 54.74H49.0427L69.133 14.9769H94.7911L60.039 78.2638V110H37.2112V78.2638L2.45909 14.9769ZM115.276 110H90.5921L122.653 14.9769H153.229L185.29 110H160.607L138.289 38.9183H137.547L115.276 110ZM111.982 72.6032H163.576V90.0489H111.982V72.6032ZM58.5543 168.465C58.245 165.063 56.8685 162.418 54.4249 160.531C52.0122 158.613 48.5632 157.655 44.0781 157.655C41.1086 157.655 38.6341 158.041 36.6544 158.814C34.6748 159.588 33.19 160.655 32.2002 162.016C31.2104 163.346 30.7 164.877 30.6691 166.609C30.6072 168.032 30.8856 169.285 31.5042 170.368C32.1538 171.45 33.0818 172.409 34.2881 173.244C35.5254 174.048 37.0101 174.76 38.7423 175.379C40.4745 175.997 42.4232 176.539 44.5885 177.002L52.7545 178.858C57.4562 179.879 61.6011 181.24 65.1892 182.941C68.8082 184.643 71.8396 186.669 74.2832 189.02C76.7578 191.37 78.6291 194.077 79.8974 197.139C81.1656 200.201 81.8151 203.635 81.8461 207.44C81.8151 213.44 80.2995 218.591 77.2991 222.89C74.2987 227.19 69.9837 230.484 64.354 232.773C58.7553 235.062 51.9967 236.206 44.0781 236.206C36.1286 236.206 29.1998 235.015 23.2918 232.634C17.3838 230.252 12.7904 226.633 9.51159 221.777C6.2328 216.92 4.547 210.78 4.45421 203.357H26.4469C26.6325 206.419 27.4522 208.971 28.906 211.012C30.3598 213.054 32.3549 214.6 34.8913 215.652C37.4587 216.704 40.4281 217.23 43.7997 217.23C46.8929 217.23 49.5221 216.812 51.6874 215.977C53.8835 215.142 55.5693 213.982 56.7448 212.497C57.9202 211.012 58.5233 209.311 58.5543 207.393C58.5233 205.599 57.9666 204.068 56.884 202.8C55.8013 201.501 54.131 200.387 51.873 199.459C49.6459 198.5 46.8001 197.619 43.3357 196.814L33.4066 194.495C25.1786 192.608 18.6984 189.561 13.9658 185.354C9.2332 181.116 6.88237 175.394 6.9133 168.187C6.88237 162.31 8.4599 157.16 11.6459 152.736C14.8319 148.313 19.2397 144.864 24.8693 142.39C30.499 139.915 36.9173 138.678 44.1245 138.678C51.4863 138.678 57.8738 139.93 63.2869 142.436C68.7309 144.911 72.9531 148.39 75.9535 152.876C78.9539 157.361 80.4851 162.557 80.5469 168.465H58.5543Z"/>
</mask>
<path d="M2.45909 14.9769H28.1172L48.2075 54.74H49.0427L69.133 14.9769H94.7911L60.039 78.2638V110H37.2112V78.2638L2.45909 14.9769ZM115.276 110H90.5921L122.653 14.9769H153.229L185.29 110H160.607L138.289 38.9183H137.547L115.276 110ZM111.982 72.6032H163.576V90.0489H111.982V72.6032ZM58.5543 168.465C58.245 165.063 56.8685 162.418 54.4249 160.531C52.0122 158.613 48.5632 157.655 44.0781 157.655C41.1086 157.655 38.6341 158.041 36.6544 158.814C34.6748 159.588 33.19 160.655 32.2002 162.016C31.2104 163.346 30.7 164.877 30.6691 166.609C30.6072 168.032 30.8856 169.285 31.5042 170.368C32.1538 171.45 33.0818 172.409 34.2881 173.244C35.5254 174.048 37.0101 174.76 38.7423 175.379C40.4745 175.997 42.4232 176.539 44.5885 177.002L52.7545 178.858C57.4562 179.879 61.6011 181.24 65.1892 182.941C68.8082 184.643 71.8396 186.669 74.2832 189.02C76.7578 191.37 78.6291 194.077 79.8974 197.139C81.1656 200.201 81.8151 203.635 81.8461 207.44C81.8151 213.44 80.2995 218.591 77.2991 222.89C74.2987 227.19 69.9837 230.484 64.354 232.773C58.7553 235.062 51.9967 236.206 44.0781 236.206C36.1286 236.206 29.1998 235.015 23.2918 232.634C17.3838 230.252 12.7904 226.633 9.51159 221.777C6.2328 216.92 4.547 210.78 4.45421 203.357H26.4469C26.6325 206.419 27.4522 208.971 28.906 211.012C30.3598 213.054 32.3549 214.6 34.8913 215.652C37.4587 216.704 40.4281 217.23 43.7997 217.23C46.8929 217.23 49.5221 216.812 51.6874 215.977C53.8835 215.142 55.5693 213.982 56.7448 212.497C57.9202 211.012 58.5233 209.311 58.5543 207.393C58.5233 205.599 57.9666 204.068 56.884 202.8C55.8013 201.501 54.131 200.387 51.873 199.459C49.6459 198.5 46.8001 197.619 43.3357 196.814L33.4066 194.495C25.1786 192.608 18.6984 189.561 13.9658 185.354C9.2332 181.116 6.88237 175.394 6.9133 168.187C6.88237 162.31 8.4599 157.16 11.6459 152.736C14.8319 148.313 19.2397 144.864 24.8693 142.39C30.499 139.915 36.9173 138.678 44.1245 138.678C51.4863 138.678 57.8738 139.93 63.2869 142.436C68.7309 144.911 72.9531 148.39 75.9535 152.876C78.9539 157.361 80.4851 162.557 80.5469 168.465H58.5543Z" fill="black"/>
<path d="M2.45909 14.9769V13.9769H0.769126L1.58255 15.4582L2.45909 14.9769ZM28.1172 14.9769L29.0097 14.5259L28.7323 13.9769H28.1172V14.9769ZM48.2075 54.74L47.315 55.1909L47.5924 55.74H48.2075V54.74ZM49.0427 54.74V55.74H49.6578L49.9352 55.1909L49.0427 54.74ZM69.133 14.9769V13.9769H68.5179L68.2405 14.5259L69.133 14.9769ZM94.7911 14.9769L95.6677 15.4582L96.4811 13.9769H94.7911V14.9769ZM60.039 78.2638L59.1625 77.7824L59.039 78.0073V78.2638H60.039ZM60.039 110V111H61.039V110H60.039ZM37.2112 110H36.2112V111H37.2112V110ZM37.2112 78.2638H38.2112V78.0073L38.0877 77.7824L37.2112 78.2638ZM2.45909 15.9769H28.1172V13.9769H2.45909V15.9769ZM27.2246 15.4279L47.315 55.1909L49.1001 54.289L29.0097 14.5259L27.2246 15.4279ZM48.2075 55.74H49.0427V53.74H48.2075V55.74ZM49.9352 55.1909L70.0256 15.4279L68.2405 14.5259L48.1501 54.289L49.9352 55.1909ZM69.133 15.9769H94.7911V13.9769H69.133V15.9769ZM93.9146 14.4956L59.1625 77.7824L60.9156 78.7451L95.6677 15.4582L93.9146 14.4956ZM59.039 78.2638V110H61.039V78.2638H59.039ZM60.039 109H37.2112V111H60.039V109ZM38.2112 110V78.2638H36.2112V110H38.2112ZM38.0877 77.7824L3.33564 14.4956L1.58255 15.4582L36.3347 78.7451L38.0877 77.7824ZM115.276 110V111H116.01L116.23 110.299L115.276 110ZM90.5921 110L89.6446 109.68L89.1993 111H90.5921V110ZM122.653 14.9769V13.9769H121.935L121.706 14.6572L122.653 14.9769ZM153.229 14.9769L154.177 14.6572L153.947 13.9769H153.229V14.9769ZM185.29 110V111H186.683L186.238 109.68L185.29 110ZM160.607 110L159.653 110.3L159.873 111H160.607V110ZM138.289 38.9183L139.243 38.6187L139.023 37.9183H138.289V38.9183ZM137.547 38.9183V37.9183H136.812L136.593 38.6193L137.547 38.9183ZM111.982 72.6032V71.6032H110.982V72.6032H111.982ZM163.576 72.6032H164.576V71.6032H163.576V72.6032ZM163.576 90.0489V91.0489H164.576V90.0489H163.576ZM111.982 90.0489H110.982V91.0489H111.982V90.0489ZM115.276 109H90.5921V111H115.276V109ZM91.5396 110.32L123.601 15.2966L121.706 14.6572L89.6446 109.68L91.5396 110.32ZM122.653 15.9769H153.229V13.9769H122.653V15.9769ZM152.282 15.2966L184.343 110.32L186.238 109.68L154.177 14.6572L152.282 15.2966ZM185.29 109H160.607V111H185.29V109ZM161.561 109.7L139.243 38.6187L137.335 39.2178L159.653 110.3L161.561 109.7ZM138.289 37.9183H137.547V39.9183H138.289V37.9183ZM136.593 38.6193L114.322 109.701L116.23 110.299L138.501 39.2172L136.593 38.6193ZM111.982 73.6032H163.576V71.6032H111.982V73.6032ZM162.576 72.6032V90.0489H164.576V72.6032H162.576ZM163.576 89.0489H111.982V91.0489H163.576V89.0489ZM112.982 90.0489V72.6032H110.982V90.0489H112.982ZM58.5543 168.465L57.5584 168.556L57.6411 169.465H58.5543V168.465ZM54.4249 160.531L53.8026 161.314L53.8137 161.323L54.4249 160.531ZM36.6544 158.814L36.2906 157.883L36.2906 157.883L36.6544 158.814ZM32.2002 162.016L33.0025 162.613L33.0089 162.604L32.2002 162.016ZM30.6691 166.609L31.6681 166.653L31.6687 166.64L31.6689 166.627L30.6691 166.609ZM31.5042 170.368L30.636 170.864L30.6413 170.873L30.6468 170.882L31.5042 170.368ZM34.2881 173.244L33.7189 174.066L33.7309 174.075L33.7431 174.083L34.2881 173.244ZM38.7423 175.379L39.0787 174.437L39.0787 174.437L38.7423 175.379ZM44.5885 177.002L44.8101 176.027L44.798 176.025L44.5885 177.002ZM52.7545 178.858L52.5329 179.834L52.5424 179.836L52.7545 178.858ZM65.1892 182.941L64.7608 183.845L64.7638 183.846L65.1892 182.941ZM74.2832 189.02L73.5899 189.74L73.5945 189.745L74.2832 189.02ZM79.8974 197.139L78.9735 197.522L78.9735 197.522L79.8974 197.139ZM81.8461 207.44L82.8462 207.445L82.846 207.431L81.8461 207.44ZM77.2991 222.89L76.479 222.318L76.479 222.318L77.2991 222.89ZM64.354 232.773L63.9774 231.847L63.9756 231.847L64.354 232.773ZM23.2918 232.634L23.6657 231.706L23.6657 231.706L23.2918 232.634ZM4.45421 203.357V202.357H3.44163L3.45429 203.369L4.45421 203.357ZM26.4469 203.357L27.445 203.296L27.3881 202.357H26.4469V203.357ZM28.906 211.012L28.0914 211.592L28.0914 211.592L28.906 211.012ZM34.8913 215.652L34.5083 216.576L34.5122 216.577L34.8913 215.652ZM51.6874 215.977L51.3319 215.042L51.3275 215.044L51.6874 215.977ZM56.7448 212.497L55.9607 211.876L55.9607 211.876L56.7448 212.497ZM58.5543 207.393L59.5541 207.409L59.5544 207.393L59.5541 207.376L58.5543 207.393ZM56.884 202.8L56.1157 203.44L56.1234 203.449L56.884 202.8ZM51.873 199.459L51.4775 200.378L51.4852 200.381L51.4929 200.384L51.873 199.459ZM43.3357 196.814L43.1082 197.788L43.1096 197.789L43.3357 196.814ZM33.4066 194.495L33.6341 193.521L33.6301 193.52L33.4066 194.495ZM13.9658 185.354L13.2987 186.099L13.3014 186.102L13.9658 185.354ZM6.9133 168.187L7.91334 168.191L7.91329 168.182L6.9133 168.187ZM11.6459 152.736L10.8345 152.152L10.8345 152.152L11.6459 152.736ZM24.8693 142.39L25.2717 143.305L25.2717 143.305L24.8693 142.39ZM63.2869 142.436L62.8668 143.344L62.8731 143.346L63.2869 142.436ZM75.9535 152.876L76.7847 152.32L76.7847 152.32L75.9535 152.876ZM80.5469 168.465V169.465H81.5575L81.5469 168.455L80.5469 168.465ZM59.5502 168.375C59.2187 164.728 57.7246 161.816 55.036 159.74L53.8137 161.323C56.0124 163.02 57.2713 165.397 57.5584 168.556L59.5502 168.375ZM55.0471 159.748C52.3927 157.638 48.6896 156.655 44.0781 156.655V158.655C48.4369 158.655 51.6316 159.588 53.8026 161.314L55.0471 159.748ZM44.0781 156.655C41.03 156.655 38.4223 157.05 36.2906 157.883L37.0183 159.746C38.8458 159.032 41.1873 158.655 44.0781 158.655V156.655ZM36.2906 157.883C34.1794 158.708 32.5199 159.876 31.3915 161.428L33.0089 162.604C33.8602 161.434 35.1701 160.468 37.0183 159.746L36.2906 157.883ZM31.398 161.419C30.2775 162.925 29.7037 164.66 29.6692 166.591L31.6689 166.627C31.6963 165.094 32.1432 163.768 33.0024 162.613L31.398 161.419ZM29.67 166.566C29.6012 168.15 29.9109 169.595 30.636 170.864L32.3725 169.871C31.8603 168.975 31.6133 167.915 31.6681 166.653L29.67 166.566ZM30.6468 170.882C31.3804 172.105 32.4145 173.163 33.7189 174.066L34.8573 172.422C33.749 171.655 32.9273 170.796 32.3617 169.853L30.6468 170.882ZM33.7431 174.083C35.0594 174.938 36.6176 175.682 38.406 176.32L39.0787 174.437C37.4027 173.838 35.9914 173.159 34.8331 172.406L33.7431 174.083ZM38.406 176.32C40.187 176.956 42.179 177.509 44.379 177.98L44.798 176.025C42.6674 175.568 40.7621 175.038 39.0787 174.437L38.406 176.32ZM44.3669 177.978L52.5329 179.834L52.9761 177.883L44.8101 176.027L44.3669 177.978ZM52.5424 179.836C57.1845 180.843 61.2544 182.183 64.7608 183.845L65.6176 182.038C61.9478 180.298 57.7279 178.915 52.9667 177.881L52.5424 179.836ZM64.7638 183.846C68.3013 185.509 71.2376 187.477 73.5899 189.74L74.9765 188.299C72.4416 185.86 69.3151 183.776 65.6146 182.036L64.7638 183.846ZM73.5945 189.745C75.9706 192.002 77.7604 194.593 78.9735 197.522L80.8213 196.757C79.4979 193.561 77.5449 190.739 74.9719 188.295L73.5945 189.745ZM78.9735 197.522C80.1857 200.449 80.8161 203.753 80.8461 207.448L82.846 207.431C82.8142 203.517 82.1454 199.954 80.8213 196.757L78.9735 197.522ZM80.8461 207.434C80.816 213.263 79.3471 218.208 76.479 222.318L78.1191 223.462C81.2519 218.973 82.8142 213.618 82.8461 207.445L80.8461 207.434ZM76.479 222.318C73.6058 226.435 69.4572 229.618 63.9774 231.847L64.7307 233.699C70.5101 231.349 74.9915 227.944 78.1191 223.462L76.479 222.318ZM63.9756 231.847C58.5279 234.075 51.9051 235.206 44.0781 235.206V237.206C52.0883 237.206 58.9828 236.049 64.7325 233.699L63.9756 231.847ZM44.0781 235.206C36.226 235.206 29.4294 234.03 23.6657 231.706L22.9179 233.561C28.9702 236.001 36.0311 237.206 44.0781 237.206V235.206ZM23.6657 231.706C17.9257 229.392 13.4979 225.894 10.3404 221.217L8.6828 222.336C12.0829 227.372 16.8418 231.112 22.9179 233.561L23.6657 231.706ZM10.3404 221.217C7.1966 216.561 5.54514 210.624 5.45413 203.344L3.45429 203.369C3.54887 210.936 5.269 217.28 8.6828 222.336L10.3404 221.217ZM4.45421 204.357H26.4469V202.357H4.45421V204.357ZM25.4487 203.417C25.6431 206.624 26.5069 209.367 28.0914 211.592L29.7205 210.432C28.3974 208.574 27.6218 206.213 27.445 203.296L25.4487 203.417ZM28.0914 211.592C29.6643 213.801 31.8158 215.459 34.5083 216.576L35.2743 214.728C32.894 213.741 31.0553 212.306 29.7205 210.432L28.0914 211.592ZM34.5122 216.577C37.2228 217.688 40.3254 218.23 43.7997 218.23V216.23C40.5309 216.23 37.6945 215.72 35.2704 214.727L34.5122 216.577ZM43.7997 218.23C46.9774 218.23 49.736 217.801 52.0472 216.91L51.3275 215.044C49.3083 215.823 46.8084 216.23 43.7997 216.23V218.23ZM52.0428 216.912C54.3672 216.028 56.2174 214.774 57.5288 213.118L55.9607 211.876C54.9213 213.189 53.3998 214.256 51.3319 215.042L52.0428 216.912ZM57.5288 213.118C58.8425 211.458 59.5197 209.544 59.5541 207.409L57.5544 207.377C57.527 209.078 56.9978 210.566 55.9607 211.876L57.5288 213.118ZM59.5541 207.376C59.5195 205.369 58.8897 203.609 57.6445 202.151L56.1234 203.449C57.0434 204.527 57.5272 205.829 57.5544 207.41L59.5541 207.376ZM57.6522 202.16C56.4293 200.692 54.5994 199.498 52.2531 198.534L51.4929 200.384C53.6626 201.276 55.1733 202.309 56.1157 203.44L57.6522 202.16ZM52.2684 198.541C49.9678 197.55 47.0601 196.652 43.5619 195.84L43.1096 197.789C46.5402 198.585 49.3239 199.45 51.4775 200.378L52.2684 198.541ZM43.5633 195.841L33.6341 193.521L33.179 195.468L43.1082 197.788L43.5633 195.841ZM33.6301 193.52C25.5134 191.658 19.2023 188.671 14.6302 184.607L13.3014 186.102C18.1945 190.451 24.8439 193.557 33.183 195.469L33.6301 193.52ZM14.6329 184.609C10.1431 180.589 7.8834 175.155 7.91329 168.191L5.91331 168.183C5.88134 175.633 8.32329 181.644 13.2987 186.099L14.6329 184.609ZM7.91329 168.182C7.88338 162.499 9.40483 157.559 12.4573 153.321L10.8345 152.152C7.51498 156.761 5.88136 162.121 5.91332 168.192L7.91329 168.182ZM12.4573 153.321C15.5261 149.06 19.7842 145.717 25.2717 143.305L24.4669 141.474C18.6952 144.011 14.1377 147.566 10.8345 152.152L12.4573 153.321ZM25.2717 143.305C30.7546 140.895 37.0323 139.678 44.1245 139.678V137.678C36.8024 137.678 30.2433 138.935 24.4669 141.474L25.2717 143.305ZM44.1245 139.678C51.3744 139.678 57.6125 140.911 62.8668 143.343L63.7069 141.528C58.1351 138.95 51.5982 137.678 44.1245 137.678V139.678ZM62.8731 143.346C68.1666 145.753 72.2364 149.117 75.1224 153.432L76.7847 152.32C73.6699 147.663 69.2952 144.069 63.7007 141.526L62.8731 143.346ZM75.1224 153.432C78.0045 157.74 79.487 162.743 79.547 168.476L81.5469 168.455C81.4832 162.372 79.9034 156.981 76.7847 152.32L75.1224 153.432ZM80.5469 167.465H58.5543V169.465H80.5469V167.465Z" fill="black" mask="url(#path-1-outside-1_1_16)"/>
</g>
<defs>
<clipPath id="clip0_1_16">
<rect width="270" height="270" fill="white"/>
</clipPath>
</defs>
</svg>
