<svg width="3180" height="1685" viewBox="0 0 3180 1685" fill="none" xmlns="http://www.w3.org/2000/svg">
<rect width="3180" height="1685" fill="white"/>
<path d="M194.584 335.019C202.083 319.818 198.625 326.458 207.681 313.349C212.168 302.953 231.252 276.007 239.113 267.408C249.235 256.336 255.683 246.632 279.153 220.601C302.622 194.57 304.379 194.283 333.786 169.026C363.192 143.77 355.878 149.959 367.326 137.437C376.642 127.246 389.884 122.579 398.994 112.614C414.852 95.2681 436.418 89.7688 454.332 75.9365C475.306 59.7422 497.69 55.9283 521.259 46.3739C536.401 40.2357 554.573 36.9187 569.905 32.7752C585.121 28.6632 602.128 27.7555 617.789 26.1065C649.266 22.7923 680.657 22.5869 712.473 22.5869H774.689C808.617 22.5869 841.87 31.2935 875.77 32.7752C943.866 35.7514 1011.01 33.1528 1079.05 32.5899C1172.68 31.8153 1265.91 23.0251 1359.26 15.1772C1428.19 9.38261 1497.81 11.9281 1566.54 3.3217C1617.38 -3.04327 1672.06 1.50213 1723.28 2.58073C1769.79 3.5601 1816.63 16.7634 1862.59 24.0688C1918.1 32.894 1973.94 39.9169 2029.72 45.9273C2067.27 49.9726 2105 51.7788 2142.16 59.2648C2238.42 78.6541 2304.78 101.199 2402.36 112.614C2467.15 120.194 2563.44 132.621 2628.53 132.621C2662.79 132.621 2700.09 131.818 2733.77 140.03C2798.81 155.888 2861.01 177.461 2924.26 201.16C2966.53 217.001 3005.81 237.542 3041.81 267.662C3073.39 294.073 3088.63 330.967 3112.35 364.543C3118.73 373.575 3122.14 389.091 3126.74 399.739C3131.93 411.758 3136.71 428.269 3139.7 441.234C3146.86 472.348 3160.55 501.476 3167.84 532.743C3177.79 575.346 3180 615.497 3180 659.449C3180 676.425 3177.64 697.296 3172 712.798C3167.17 726.091 3170.57 747.007 3168.32 761.332C3165.2 781.259 3157.84 795.063 3149.61 811.532C3130.46 849.85 3114.94 886.5 3089.48 919.528C3055.57 963.512 2984.63 978.405 2970.96 984.363C2957.3 990.321 2913.51 1007.75 2872.73 1023.26C2831.94 1038.76 2783.36 1049.64 2740.65 1054.38C2695.89 1059.36 2650.99 1065.86 2606.14 1069.57C2560.03 1073.39 2513.4 1070.09 2467.64 1077.91C2405.53 1088.52 2346.95 1089.5 2284.51 1086.06C2228.86 1082.99 2173.21 1072.91 2117.53 1072.91C2035.4 1072.91 1952.41 1074.96 1870.75 1084.76C1798.5 1093.44 1727.1 1094.75 1656.43 1117C1582.92 1140.14 1501.48 1155.34 1435.39 1201.1C1409.23 1219.21 1375.49 1240.7 1354.78 1267.04C1331.04 1297.24 1309.7 1328.38 1287.93 1360.4C1268.41 1389.11 1244.17 1413.88 1218.2 1434.5C1186.37 1459.78 1158.74 1490.95 1125.75 1514.53C1098.05 1534.32 1072 1556.57 1044.5 1576.77C1005.57 1605.37 965.012 1626.26 922.312 1646.05C852.343 1678.46 777.415 1683.1 703.036 1683.1C635.491 1683.1 558.441 1692.43 492.718 1669.76C426.464 1646.9 358.016 1631.23 290.875 1612.33C254.828 1602.19 220.386 1585.6 186.276 1568.99C155.355 1553.93 130.849 1531.66 101.828 1513.04C63.1934 1488.26 33.044 1454.86 16.1016 1406.34C-26.9938 1282.95 27.3515 1149.33 51.9277 1027.71C69.9053 938.744 98.2379 854.077 121.501 767.259C128.282 741.952 137.015 714.702 137.015 687.976C137.015 671.348 139.714 653.773 143.412 637.59C156.511 580.276 144.421 518.063 161.485 462.722C170.463 433.608 171.024 400.431 180.198 371.212C184.522 357.44 188.495 347.36 194.584 335.019Z" fill="#64FCD9"/>
<path d="M315.944 1250C312.766 1250 291 1249 284 1249H235.889C227.596 1249 226 1247.91 226 1256.56C226 1266.84 230.927 1282.87 233 1293C235.959 1307.47 235.874 1315.38 239.556 1329.67C239.556 1344 235.944 1362.5 237.5 1376.5C236 1444 240 1454.15 240 1494.11C240 1516.37 241.613 1542.41 236 1564.11C233.467 1573.91 283.789 1565.41 291.187 1564.16L291.5 1564.11C322 1564.11 321.778 1562.07 369 1559.5C416.222 1556.93 485.333 1548.89 485.333 1548.89C508.475 1545.97 531.1 1540.84 554.222 1538.11C569.991 1536.25 586.264 1535.49 601.778 1532C612.613 1529.56 626.482 1530.48 636.667 1526.78C643.522 1524.28 640.052 1490.6 640 1485.22C639.715 1455.6 631.02 1426.58 630 1397C629.288 1376.35 625.573 1355.3 628.444 1334.56C630.966 1316.35 632 1299.41 632 1281V1241.44C632 1225.77 602.991 1233.96 592.444 1235.44C560.105 1239.99 527.658 1238.49 495.111 1242.56C435.555 1250 376.296 1250 316.381 1250H315.944Z" fill="#D9D9D9" stroke="black" stroke-width="3" stroke-linecap="round"/>
<path d="M318 1292C324.185 1289.81 343.295 1287.55 347.889 1294.44C352.582 1301.48 350.746 1317.78 349.556 1326C347.802 1338.1 334.716 1353.62 324 1359.11C299.742 1371.54 274.25 1292.54 317.557 1292C317.704 1292 317.851 1292 318 1292Z" fill="white"/>
<path d="M315.5 1292.09C321.797 1291.3 311.476 1294.32 318 1292M318 1292C324.185 1289.81 343.295 1287.55 347.889 1294.44C352.582 1301.48 350.746 1317.78 349.556 1326C347.802 1338.1 334.716 1353.62 324 1359.11C299.66 1371.58 274.077 1292 318 1292Z" stroke="black" stroke-width="3" stroke-linecap="round"/>
<path d="M432.5 1209.5C428 1210.5 427.687 1211 426 1212C419.334 1215.95 412.611 1211.35 406 1211C393.772 1210.36 406.599 1188.39 413.556 1185.44C418.454 1183.37 451.088 1166.58 452 1183C452.648 1194.66 447 1201.5 444.5 1203.5C442 1205.5 437 1208.5 432.5 1209.5Z" fill="#AC1111"/>
<path d="M428 1249C428 1237.51 426 1223.22 426 1212M426 1212C427.687 1211 428 1210.5 432.5 1209.5C437 1208.5 442 1205.5 444.5 1203.5C447 1201.5 452.648 1194.66 452 1183C451.088 1166.58 418.454 1183.37 413.556 1185.44C406.599 1188.39 393.772 1210.36 406 1211C412.611 1211.35 419.334 1215.95 426 1212Z" stroke="black" stroke-width="3" stroke-linecap="round"/>
<path d="M405.366 1351.87C405.778 1351.56 406.214 1351.31 406.677 1351.15C408.955 1350.07 412.028 1349.26 412.67 1349.54C415.704 1350.89 421.5 1355.85 423.5 1358C425.5 1360.15 429.332 1363.43 432 1365C434.668 1366.57 439.985 1374.62 441.964 1376.49C443.119 1377.58 426.144 1379 426 1379C414.638 1379.08 412.869 1379.37 401.894 1381.45C399.667 1381.87 390.184 1383.93 390.775 1380.68C391.432 1377.06 392.912 1370.98 394.923 1367.85C396.635 1365.19 398.569 1363 400.141 1360.15C401.164 1358.29 402.42 1355.09 404.198 1353C404.359 1352.63 404.785 1352.25 405.366 1351.87Z" fill="#AC1111"/>
<path d="M406.897 1351.08C403.579 1351.99 401.618 1357.47 400.141 1360.15C398.569 1363 396.635 1365.19 394.923 1367.85C392.912 1370.98 391.432 1377.06 390.775 1380.68C390.184 1383.93 399.667 1381.87 401.894 1381.45C412.869 1379.37 414.638 1379.08 426 1379C426.144 1379 443.119 1377.58 441.964 1376.49C439.985 1374.62 434.668 1366.57 432 1365C429.332 1363.43 425.5 1360.15 423.5 1358C421.5 1355.85 415.704 1350.89 412.67 1349.54C411.683 1349.11 404.963 1351.25 404.198 1353" stroke="black" stroke-width="3" stroke-linecap="round"/>
<path d="M484.556 1343.56C496.45 1346.09 510.438 1343.87 520.815 1337.53C520.815 1337.53 531.178 1332.29 532 1331C533.879 1328.05 535.693 1324.03 536 1320.5C536.533 1314.37 535.11 1300.44 532 1295C528.714 1289.25 524.477 1287.92 518.5 1284.5C517.702 1284.04 509.5 1282.5 509.5 1282.5C509.5 1282.5 497 1278.9 497 1280C480.085 1280 473.211 1302.04 473 1315.56C472.84 1325.81 471.735 1340.83 484.556 1343.56Z" fill="white" stroke="black" stroke-width="3" stroke-linecap="round"/>
<path d="M497.778 1430.67C525.273 1427.76 540.297 1420 568 1420C569 1420 573.907 1419.07 574.5 1421C575.466 1424.14 575.014 1429.06 575 1432.35C575.029 1448.62 577 1465.63 577 1482.44C577 1490.8 580.623 1503.93 571.222 1508C559.219 1513.19 542.263 1509.18 529.444 1510.44C492.434 1514.1 453.934 1519.74 416.778 1520C388.928 1520.19 361.959 1522.97 334.556 1528C324.452 1529.86 314.163 1531.1 304.111 1533.11C300.92 1533.75 295.491 1536.85 292.111 1535.89C287.81 1534.66 295 1491.59 295 1486.78C295 1480.74 291.349 1447.36 296.222 1444.11C301.003 1440.92 311.417 1440.8 316.889 1440.11C351.127 1435.83 385.667 1437.19 420 1433C445.747 1429.86 471.935 1433.4 497.778 1430.67Z" fill="white"/>
<path fill-rule="evenodd" clip-rule="evenodd" d="M542.545 1424.14C542.746 1423.33 543.56 1422.84 544.364 1423.04C544.913 1423.18 545.245 1423.55 545.401 1423.75C545.577 1423.97 545.707 1424.23 545.804 1424.45C546.002 1424.89 546.173 1425.45 546.327 1426.07C546.639 1427.31 546.942 1429.01 547.232 1431.01C547.814 1435.01 548.37 1440.34 548.853 1445.83C549.817 1456.8 550.5 1468.59 550.5 1472V1509C550.5 1509.83 549.828 1510.5 549 1510.5C548.172 1510.5 547.5 1509.83 547.5 1509V1472C547.5 1468.73 546.828 1457.06 545.865 1446.09C545.383 1440.62 544.833 1435.36 544.263 1431.44C543.977 1429.48 543.692 1427.89 543.417 1426.8C543.281 1426.25 543.161 1425.89 543.068 1425.68C542.621 1425.32 542.397 1424.73 542.545 1424.14ZM523 1426.5C523.828 1426.5 524.5 1427.17 524.5 1428V1509C524.5 1509.83 523.828 1510.5 523 1510.5C522.172 1510.5 521.5 1509.83 521.5 1509V1428C521.5 1427.17 522.172 1426.5 523 1426.5ZM499.805 1431.08C499.884 1430.98 500.354 1430.41 501.186 1430.51C502.008 1430.61 502.591 1431.36 502.488 1432.19C502.468 1432.35 502.424 1432.5 502.36 1432.63C502.344 1432.71 502.324 1432.83 502.3 1432.98C502.228 1433.45 502.138 1434.16 502.033 1435.1C501.823 1436.97 501.559 1439.66 501.262 1442.95C500.668 1449.53 499.94 1458.44 499.234 1467.73C497.819 1486.36 496.5 1506.44 496.5 1512.5C496.5 1513.33 495.828 1514 495 1514C494.172 1514 493.5 1513.33 493.5 1512.5C493.5 1506.3 494.832 1486.08 496.243 1467.51C496.949 1458.2 497.678 1449.28 498.274 1442.68C498.572 1439.39 498.838 1436.66 499.051 1434.76C499.158 1433.82 499.253 1433.06 499.335 1432.53C499.375 1432.27 499.417 1432.03 499.463 1431.84C499.483 1431.76 499.519 1431.61 499.579 1431.47C499.604 1431.41 499.673 1431.25 499.805 1431.08ZM500.814 1433.49C501.084 1433.52 501.347 1433.48 501.581 1433.38C501.377 1433.47 501.121 1433.53 500.814 1433.49ZM431.198 1431.01C432.02 1431.12 432.596 1431.88 432.487 1432.7C431.505 1440.07 431.499 1451.72 431.75 1463.22C431.856 1468.09 432.008 1472.93 432.147 1477.37C432.335 1483.34 432.5 1488.59 432.5 1492.22C432.5 1493.34 432.639 1495.15 432.814 1497.42C432.837 1497.72 432.861 1498.04 432.885 1498.36C433.088 1501.02 433.309 1504.13 433.372 1507.15C433.435 1510.16 433.344 1513.18 432.895 1515.63C432.67 1516.86 432.344 1518.01 431.862 1518.98C431.381 1519.94 430.687 1520.83 429.671 1521.34C428.93 1521.71 428.029 1521.41 427.658 1520.67C427.288 1519.93 427.588 1519.03 428.329 1518.66C428.561 1518.54 428.866 1518.26 429.177 1517.64C429.487 1517.02 429.747 1516.17 429.944 1515.09C430.338 1512.94 430.435 1510.17 430.373 1507.21C430.312 1504.28 430.097 1501.24 429.894 1498.58C429.87 1498.26 429.845 1497.95 429.822 1497.64C429.65 1495.41 429.5 1493.46 429.5 1492.22C429.5 1488.63 429.338 1483.47 429.151 1477.55C429.012 1473.11 428.858 1468.24 428.75 1463.28C428.501 1451.82 428.495 1439.93 429.513 1432.3C429.623 1431.48 430.377 1430.9 431.198 1431.01ZM471 1432.5C471.828 1432.5 472.5 1433.17 472.5 1434C472.5 1435.4 472.501 1436.8 472.502 1438.22C472.515 1457.82 472.53 1479.37 470.043 1498.64C469.771 1500.75 469.49 1505.45 469.24 1509.61C469.153 1511.06 469.071 1512.45 468.993 1513.63C468.92 1514.77 468.85 1515.73 468.788 1516.38C468.757 1516.69 468.724 1516.99 468.684 1517.2C468.673 1517.26 468.658 1517.33 468.636 1517.41C468.623 1517.46 468.574 1517.63 468.46 1517.83C468.41 1517.91 468.258 1518.15 467.953 1518.34C467.549 1518.59 466.989 1518.67 466.474 1518.4C466.09 1518.21 465.906 1517.91 465.85 1517.81C465.775 1517.68 465.734 1517.57 465.714 1517.51C465.647 1517.31 465.625 1517.1 465.616 1517.02L465.615 1517.02C465.602 1516.89 465.591 1516.74 465.582 1516.58C465.563 1516.25 465.548 1515.81 465.536 1515.24C465.513 1514.09 465.5 1512.38 465.5 1510C465.5 1509.43 465.82 1508.93 466.29 1508.68C466.529 1504.7 466.801 1500.32 467.068 1498.25C469.529 1479.18 469.515 1457.82 469.502 1438.18C469.501 1436.78 469.5 1435.38 469.5 1434C469.5 1433.17 470.172 1432.5 471 1432.5ZM399 1433.5C399.828 1433.5 400.5 1434.17 400.5 1435C400.5 1449.19 401.496 1463.28 402.496 1477.42L402.5 1477.47C403.498 1491.57 404.5 1505.73 404.5 1520C404.5 1520.83 403.828 1521.5 403 1521.5C402.172 1521.5 401.5 1520.83 401.5 1520C401.5 1505.84 400.504 1491.77 399.504 1477.63L399.504 1477.63C398.504 1463.51 397.5 1449.32 397.5 1435C397.5 1434.17 398.172 1433.5 399 1433.5ZM376.189 1435.7C377.018 1435.7 377.689 1436.37 377.689 1437.2C377.689 1447.21 377.446 1457.26 377.18 1467.25C377.06 1471.73 376.993 1476.18 377.532 1480.5C377.804 1482.67 377.921 1485.01 377.951 1487.16C377.958 1487.72 377.991 1488.23 378.027 1488.77C378.051 1489.13 378.075 1489.51 378.095 1489.93C378.138 1490.91 378.137 1491.97 377.924 1493.08C377.159 1497.04 376.432 1501.21 376.381 1505.08C376.37 1505.92 376.387 1506.71 376.405 1507.54C376.418 1508.14 376.432 1508.75 376.435 1509.41C376.442 1510.9 376.39 1512.45 376.109 1514C375.724 1516.12 376.31 1518.13 377.089 1520.47C377.351 1521.25 376.926 1522.1 376.14 1522.36C375.354 1522.63 374.505 1522.2 374.243 1521.41C373.48 1519.13 372.619 1516.43 373.158 1513.46C373.389 1512.19 373.442 1510.85 373.435 1509.42C373.432 1508.88 373.42 1508.3 373.408 1507.71C373.389 1506.82 373.37 1505.9 373.381 1505.04C373.437 1500.87 374.214 1496.46 374.978 1492.51C375.126 1491.75 375.137 1490.95 375.098 1490.06C375.084 1489.77 375.063 1489.44 375.041 1489.1C375.002 1488.48 374.959 1487.81 374.951 1487.2C374.923 1485.12 374.809 1482.9 374.555 1480.87C373.984 1476.3 374.062 1471.64 374.181 1467.17C374.447 1457.18 374.689 1447.16 374.689 1437.2C374.689 1436.37 375.361 1435.7 376.189 1435.7ZM352.079 1437.5C352.906 1437.55 353.541 1438.25 353.498 1439.08C352.385 1460.26 351.5 1481.12 351.5 1502.31C351.5 1502.97 351.647 1504.76 351.847 1507.19C352.043 1509.57 352.279 1512.45 352.437 1515.17C352.593 1517.86 352.678 1520.46 352.553 1522.25C352.521 1522.7 352.475 1523.13 352.406 1523.5C352.34 1523.86 352.239 1524.27 352.057 1524.63C351.9 1524.94 351.464 1525.63 350.562 1525.72C349.718 1525.8 349.145 1525.28 348.91 1525.03C348.341 1524.43 348.367 1523.48 348.969 1522.91C349.13 1522.76 349.315 1522.65 349.51 1522.58C349.529 1522.42 349.546 1522.24 349.56 1522.04C349.67 1520.46 349.598 1518.03 349.442 1515.34C349.286 1512.67 349.053 1509.82 348.857 1507.44L348.836 1507.18C348.654 1504.96 348.5 1503.1 348.5 1502.31C348.5 1481.04 349.388 1460.12 350.502 1438.92C350.546 1438.09 351.251 1437.46 352.079 1437.5ZM351.09 1522.97C351.088 1522.97 351.086 1522.97 351.084 1522.96C351.106 1522.98 351.108 1522.99 351.09 1522.97ZM314.5 1440.5C315.328 1440.5 316 1441.17 316 1442C316 1451.5 316.864 1463.13 317.738 1474.89L317.746 1474.99C318.62 1486.75 319.5 1498.62 319.5 1508.44C319.5 1508.63 319.502 1508.93 319.504 1509.32C319.516 1511.63 319.545 1517.15 319.362 1522C319.256 1524.81 319.076 1527.5 318.759 1529.22C318.678 1529.66 318.582 1530.07 318.46 1530.43C318.357 1530.73 318.168 1531.21 317.795 1531.58C317.583 1531.78 317.243 1532.02 316.771 1532.08C316.286 1532.14 315.876 1531.99 315.589 1531.81C315.103 1531.49 314.821 1531 314.658 1530.67C314.288 1529.93 314.588 1529.03 315.329 1528.66C315.494 1528.58 315.666 1528.53 315.838 1528.51C316.095 1527.01 316.262 1524.61 316.364 1521.89C316.544 1517.12 316.516 1511.69 316.504 1509.35C316.502 1508.95 316.5 1508.64 316.5 1508.44C316.5 1498.76 315.63 1487 314.754 1475.21L314.74 1475.02C313.871 1463.33 313 1451.61 313 1442C313 1441.17 313.672 1440.5 314.5 1440.5Z" fill="black"/>
<path d="M575 1432.35C575.029 1448.62 577 1465.63 577 1482.44C577 1490.8 580.623 1503.93 571.222 1508C559.219 1513.19 542.263 1509.18 529.444 1510.44C492.434 1514.1 453.934 1519.74 416.778 1520C388.928 1520.19 361.959 1522.97 334.556 1528C324.452 1529.86 314.163 1531.1 304.111 1533.11C300.92 1533.75 295.491 1536.85 292.111 1535.89C287.81 1534.66 295 1491.59 295 1486.78C295 1480.74 291.349 1447.36 296.222 1444.11C301.003 1440.92 311.417 1440.8 316.889 1440.11C351.127 1435.83 385.667 1437.19 420 1433C445.747 1429.86 471.935 1433.4 497.778 1430.67C525.273 1427.76 540.297 1420 568 1420C569 1420 573.907 1419.07 574.5 1421C575.466 1424.14 575.014 1429.06 575 1432.35ZM575 1432.35C575 1432.24 575 1432.12 575 1432M575 1432.35C575 1432.4 575 1432.45 575 1432.5M315.568 1529.6C315.568 1529.6 315.569 1529.59 315.571 1529.59M317.412 1529.46C317.417 1529.46 317.419 1529.47 317.419 1529.47M544.364 1423.04C543.56 1422.84 542.746 1423.33 542.545 1424.14C542.397 1424.73 542.621 1425.32 543.068 1425.68C543.161 1425.89 543.281 1426.25 543.417 1426.8C543.692 1427.89 543.977 1429.48 544.263 1431.44C544.833 1435.36 545.383 1440.62 545.865 1446.09C546.828 1457.06 547.5 1468.73 547.5 1472V1509C547.5 1509.83 548.172 1510.5 549 1510.5C549.828 1510.5 550.5 1509.83 550.5 1509V1472C550.5 1468.59 549.817 1456.8 548.853 1445.83C548.37 1440.34 547.814 1435.01 547.232 1431.01C546.942 1429.01 546.639 1427.31 546.327 1426.07C546.173 1425.45 546.002 1424.89 545.804 1424.45C545.707 1424.23 545.577 1423.97 545.401 1423.75C545.245 1423.55 544.913 1423.18 544.364 1423.04ZM524.5 1428C524.5 1427.17 523.828 1426.5 523 1426.5C522.172 1426.5 521.5 1427.17 521.5 1428V1509C521.5 1509.83 522.172 1510.5 523 1510.5C523.828 1510.5 524.5 1509.83 524.5 1509V1428ZM501.186 1430.51C500.354 1430.41 499.884 1430.98 499.805 1431.08C499.673 1431.25 499.604 1431.41 499.579 1431.47C499.519 1431.61 499.483 1431.76 499.463 1431.84C499.417 1432.03 499.375 1432.27 499.335 1432.53C499.253 1433.06 499.158 1433.82 499.051 1434.76C498.838 1436.66 498.572 1439.39 498.274 1442.68C497.678 1449.28 496.949 1458.2 496.243 1467.51C494.832 1486.08 493.5 1506.3 493.5 1512.5C493.5 1513.33 494.172 1514 495 1514C495.828 1514 496.5 1513.33 496.5 1512.5C496.5 1506.44 497.819 1486.36 499.234 1467.73C499.94 1458.44 500.668 1449.53 501.262 1442.95C501.559 1439.66 501.823 1436.97 502.033 1435.1C502.138 1434.16 502.228 1433.45 502.3 1432.98C502.324 1432.83 502.344 1432.71 502.36 1432.63C502.424 1432.5 502.468 1432.35 502.488 1432.19C502.591 1431.36 502.008 1430.61 501.186 1430.51ZM500.814 1433.49C501.084 1433.52 501.347 1433.48 501.581 1433.38C501.377 1433.47 501.121 1433.53 500.814 1433.49ZM432.487 1432.7C432.596 1431.88 432.02 1431.12 431.198 1431.01C430.377 1430.9 429.623 1431.48 429.513 1432.3C428.495 1439.93 428.501 1451.82 428.75 1463.28C428.858 1468.24 429.012 1473.11 429.151 1477.55C429.338 1483.47 429.5 1488.63 429.5 1492.22C429.5 1493.46 429.65 1495.41 429.822 1497.64C429.845 1497.95 429.87 1498.26 429.894 1498.58C430.097 1501.24 430.312 1504.28 430.373 1507.21C430.435 1510.17 430.338 1512.94 429.944 1515.09C429.747 1516.17 429.487 1517.02 429.177 1517.64C428.866 1518.26 428.561 1518.54 428.329 1518.66C427.588 1519.03 427.288 1519.93 427.658 1520.67C428.029 1521.41 428.93 1521.71 429.671 1521.34C430.687 1520.83 431.381 1519.94 431.862 1518.98C432.344 1518.01 432.67 1516.86 432.895 1515.63C433.344 1513.18 433.435 1510.16 433.372 1507.15C433.309 1504.13 433.088 1501.02 432.885 1498.36C432.861 1498.04 432.837 1497.72 432.814 1497.42C432.639 1495.15 432.5 1493.34 432.5 1492.22C432.5 1488.59 432.335 1483.34 432.147 1477.37C432.008 1472.93 431.856 1468.09 431.75 1463.22C431.499 1451.72 431.505 1440.07 432.487 1432.7ZM472.5 1434C472.5 1433.17 471.828 1432.5 471 1432.5C470.172 1432.5 469.5 1433.17 469.5 1434C469.5 1435.38 469.501 1436.78 469.502 1438.18C469.515 1457.82 469.529 1479.18 467.068 1498.25C466.801 1500.32 466.529 1504.7 466.29 1508.68C465.82 1508.93 465.5 1509.43 465.5 1510C465.5 1512.38 465.513 1514.09 465.536 1515.24C465.548 1515.81 465.563 1516.25 465.582 1516.58C465.591 1516.74 465.602 1516.89 465.615 1517.02L465.616 1517.02C465.625 1517.1 465.647 1517.31 465.714 1517.51C465.734 1517.57 465.775 1517.68 465.85 1517.81C465.906 1517.91 466.09 1518.21 466.474 1518.4C466.989 1518.67 467.549 1518.59 467.953 1518.34C468.258 1518.15 468.41 1517.91 468.46 1517.83C468.574 1517.63 468.623 1517.46 468.636 1517.41C468.658 1517.33 468.673 1517.26 468.684 1517.2C468.724 1516.99 468.757 1516.69 468.788 1516.38C468.85 1515.73 468.92 1514.77 468.993 1513.63C469.071 1512.45 469.153 1511.06 469.24 1509.61C469.49 1505.45 469.771 1500.75 470.043 1498.64C472.53 1479.37 472.515 1457.82 472.502 1438.22C472.501 1436.8 472.5 1435.4 472.5 1434ZM400.5 1435C400.5 1434.17 399.828 1433.5 399 1433.5C398.172 1433.5 397.5 1434.17 397.5 1435C397.5 1449.32 398.504 1463.51 399.504 1477.63L399.504 1477.63C400.504 1491.77 401.5 1505.84 401.5 1520C401.5 1520.83 402.172 1521.5 403 1521.5C403.828 1521.5 404.5 1520.83 404.5 1520C404.5 1505.73 403.498 1491.57 402.5 1477.47L402.496 1477.42C401.496 1463.28 400.5 1449.19 400.5 1435ZM377.689 1437.2C377.689 1436.37 377.018 1435.7 376.189 1435.7C375.361 1435.7 374.689 1436.37 374.689 1437.2C374.689 1447.16 374.447 1457.18 374.181 1467.17C374.062 1471.64 373.984 1476.3 374.555 1480.87C374.809 1482.9 374.923 1485.12 374.951 1487.2C374.959 1487.81 375.002 1488.48 375.041 1489.1C375.063 1489.44 375.084 1489.77 375.098 1490.06C375.137 1490.95 375.126 1491.75 374.978 1492.51C374.214 1496.46 373.437 1500.87 373.381 1505.04C373.37 1505.9 373.389 1506.82 373.408 1507.71C373.42 1508.3 373.432 1508.88 373.435 1509.42C373.442 1510.85 373.389 1512.19 373.158 1513.46C372.619 1516.43 373.48 1519.13 374.243 1521.41C374.505 1522.2 375.354 1522.63 376.14 1522.36C376.926 1522.1 377.351 1521.25 377.089 1520.47C376.31 1518.13 375.724 1516.12 376.109 1514C376.39 1512.45 376.442 1510.9 376.435 1509.41C376.432 1508.75 376.418 1508.14 376.405 1507.54C376.387 1506.71 376.37 1505.92 376.381 1505.08C376.432 1501.21 377.159 1497.04 377.924 1493.08C378.137 1491.97 378.138 1490.91 378.095 1489.93C378.075 1489.51 378.051 1489.13 378.027 1488.77C377.991 1488.23 377.958 1487.72 377.951 1487.16C377.921 1485.01 377.804 1482.67 377.532 1480.5C376.993 1476.18 377.06 1471.73 377.18 1467.25C377.446 1457.26 377.689 1447.21 377.689 1437.2ZM353.498 1439.08C353.541 1438.25 352.906 1437.55 352.079 1437.5C351.251 1437.46 350.546 1438.09 350.502 1438.92C349.388 1460.12 348.5 1481.04 348.5 1502.31C348.5 1503.1 348.654 1504.96 348.836 1507.18L348.857 1507.44C349.053 1509.82 349.286 1512.67 349.442 1515.34C349.598 1518.03 349.67 1520.46 349.56 1522.04C349.546 1522.24 349.529 1522.42 349.51 1522.58C349.315 1522.65 349.13 1522.76 348.969 1522.91C348.367 1523.48 348.341 1524.43 348.91 1525.03C349.145 1525.28 349.718 1525.8 350.562 1525.72C351.464 1525.63 351.9 1524.94 352.057 1524.63C352.239 1524.27 352.34 1523.86 352.406 1523.5C352.475 1523.13 352.521 1522.7 352.553 1522.25C352.678 1520.46 352.593 1517.86 352.437 1515.17C352.279 1512.45 352.043 1509.57 351.847 1507.19C351.647 1504.76 351.5 1502.97 351.5 1502.31C351.5 1481.12 352.385 1460.26 353.498 1439.08ZM351.09 1522.97C351.088 1522.97 351.086 1522.97 351.084 1522.96C351.106 1522.98 351.108 1522.99 351.09 1522.97ZM316 1442C316 1441.17 315.328 1440.5 314.5 1440.5C313.672 1440.5 313 1441.17 313 1442C313 1451.61 313.871 1463.33 314.74 1475.02L314.754 1475.21C315.63 1487 316.5 1498.76 316.5 1508.44C316.5 1508.64 316.502 1508.95 316.504 1509.35C316.516 1511.69 316.544 1517.12 316.364 1521.89C316.262 1524.61 316.095 1527.01 315.838 1528.51C315.666 1528.53 315.494 1528.58 315.329 1528.66C314.588 1529.03 314.288 1529.93 314.658 1530.67C314.821 1531 315.103 1531.49 315.589 1531.81C315.876 1531.99 316.286 1532.14 316.771 1532.08C317.243 1532.02 317.583 1531.78 317.795 1531.58C318.168 1531.21 318.357 1530.73 318.46 1530.43C318.582 1530.07 318.678 1529.66 318.759 1529.22C319.076 1527.5 319.256 1524.81 319.362 1522C319.545 1517.15 319.516 1511.63 319.504 1509.32C319.502 1508.93 319.5 1508.63 319.5 1508.44C319.5 1498.62 318.62 1486.75 317.746 1474.99L317.738 1474.89C316.864 1463.13 316 1451.5 316 1442Z" stroke="black" stroke-linecap="round"/>
<path d="M183.373 1310.61C196.261 1305.68 218.878 1298.5 232.5 1298.5C234.341 1298.5 234.872 1301.26 235.267 1302.68C235.446 1303.33 235.51 1304.01 235.706 1304.64C235.989 1305.56 236.599 1306.5 236.686 1307.46C236.849 1309.25 237.064 1310.98 237.064 1312.79C237.064 1314.73 237.524 1316.59 237.626 1318.52C237.75 1320.89 238.102 1323.42 238.718 1325.7C239.248 1327.66 238.723 1329.81 238.994 1331.82C239.275 1333.89 238.81 1336.09 238.453 1338.14C238.038 1340.51 238.351 1343.15 238.351 1345.55C238.351 1348.08 238.343 1350.81 238.075 1353.33C237.744 1356.44 237.713 1359.62 237.616 1362.74C237.557 1364.61 237.634 1366.26 237.789 1368.13C237.944 1369.98 237.841 1371.94 237.575 1373.77C237.241 1376.07 237.432 1378.48 237.432 1380.8C237.432 1382.12 237.42 1383.45 237.432 1384.78C237.445 1386.32 237.783 1387.84 237.799 1389.37C237.818 1391.11 237.616 1393.79 237.616 1395.5C237.616 1402.26 237.588 1409.02 237.616 1415.78C237.631 1419.69 238.005 1423.51 237.84 1427.42C237.782 1428.79 237.767 1430.17 237.84 1431.55C237.912 1432.9 237.691 1434.12 237.626 1435.46C237.506 1437.91 237.57 1440.47 236.084 1442.5C235.455 1443.36 236.42 1444.49 236.084 1445.5C231.751 1445.5 226.142 1444.36 222 1444C217.053 1444 212.792 1445 205 1445C197.208 1445 186.219 1451.96 187.794 1443.67C189.369 1435.38 187.303 1434.32 187.794 1430C188.285 1425.68 190.004 1422.22 190.004 1415.54V1381.83C190.004 1369.86 187.794 1358 187.794 1346.22C187.794 1337.38 173.743 1314.3 183.373 1310.61Z" fill="#AC1111" stroke="black" stroke-width="3" stroke-linecap="round"/>
<path d="M656.889 1278H631.5C631.5 1279.66 630.712 1281.34 630.712 1282.96C630.712 1284.64 630.896 1286.21 630.896 1287.88C630.896 1289.75 630.712 1291.58 630.712 1293.44C630.712 1295.27 629.61 1296.93 629.61 1298.68C629.61 1301.76 629.022 1304.97 628.68 1308.05C628.59 1308.86 628.449 1309.79 628.282 1310.58C628.06 1311.64 627.993 1312.54 627.945 1313.67C627.885 1315.08 627.772 1316.47 627.772 1317.9C627.772 1318.64 627.93 1319.6 627.731 1320.33C627.36 1321.67 627.404 1323.38 627.404 1324.78V1329.25C627.404 1330.59 627.751 1332.52 627.363 1333.82C627.072 1334.81 627.037 1336.06 627.037 1337.08C627.037 1338.41 626.557 1339.92 626.965 1341.24C627.611 1343.32 628.135 1345.45 628.65 1347.57C629.265 1350.1 628.306 1352.99 628.701 1355.56C629.18 1358.67 628.874 1361.68 628.874 1364.8C628.874 1367.82 629.073 1370.7 629.834 1373.63C630.25 1375.23 630.712 1377.24 630.712 1378.92V1384.52C630.712 1386.58 630.161 1388.57 630.161 1390.62C630.161 1392.74 629.821 1394.65 630.304 1396.74C630.482 1397.51 630.398 1398.36 630.539 1399.13C630.671 1399.86 631.098 1400.7 631.346 1401.41C631.866 1402.9 631.988 1404.5 632.458 1406.01C632.973 1407.65 633.411 1409.25 633.939 1410.9C634.663 1413.15 635 1416.66 635 1419C642.5 1417 658.94 1413.93 673.556 1413.93C686.386 1413.93 683.958 1409.01 681 1396C677.943 1382.55 678.941 1366.79 673.556 1354C673.556 1342 675.752 1331.61 673.556 1322C671.228 1311.82 672.556 1298.89 673.556 1287.5C674.556 1276.11 668.449 1278 656.889 1278Z" fill="#AC1111" stroke="black" stroke-width="3" stroke-linecap="round"/>
<path d="M635.01 876.002C648.101 875.282 598.008 1125 598.008 1125C598.008 1125 801.474 980.667 817.332 977.136C833.189 973.605 894.588 997.085 948.548 1010.3C1014.64 1010.3 1093.56 1039.26 1158.79 1027.34C1187.44 1022.11 1214.55 1020.01 1243.6 1019.42C1269.95 1018.88 1295.1 1006.93 1321.2 1003.85C1375.5 997.463 1449.83 940.843 1456.09 933.352C1462.34 925.862 1502.23 859.646 1524.64 833.269C1539.92 815.276 1540 765.125 1540 765.125V668.585C1540 668.585 1513.07 582.769 1503.3 565.832C1485.28 534.6 1454.6 521.977 1424.51 503.225C1392.46 483.255 1357.22 462.601 1292.77 442.051C1228.33 421.502 1170.32 407.616 1111.4 401.374C1002.91 389.882 968.849 381.833 887.192 377.532C805.535 373.231 739.509 370.814 650.341 401.374C580.332 425.368 524.02 475.763 500.109 532.029C476.198 588.295 450.886 690.569 452.038 713.032C453.19 735.494 447.776 757.956 471.687 800.013C495.597 842.07 528.011 850.612 545.675 857.841C591.288 876.51 536.584 859.888 582.218 876.002C585.196 876.002 621.918 876.723 635.01 876.002Z" fill="white"/>
<path d="M640.646 871.314C653.496 870.609 604.324 1115 604.324 1115C604.324 1115 804.05 973.746 819.616 970.29C835.182 966.835 895.452 989.814 948.42 1002.74C1013.3 1002.74 1090.76 1031.09 1154.8 1019.43C1182.92 1014.31 1209.53 1012.25 1238.05 1011.67C1263.91 1011.14 1288.6 999.446 1314.23 996.439C1367.53 990.184 1440.49 934.771 1446.63 927.441C1452.77 920.111 1491.92 855.307 1513.92 829.493C1528.93 811.884 1529 762.802 1529 762.802V668.322C1529 668.322 1502.56 584.337 1492.97 567.761C1475.29 537.195 1445.17 524.842 1415.63 506.489C1384.17 486.945 1349.58 466.732 1286.32 446.621C1223.06 426.51 1166.11 412.92 1108.27 406.811C1001.79 395.565 968.349 387.688 888.192 383.478C808.036 379.269 743.224 376.903 655.695 406.812C586.973 430.294 531.696 479.614 508.225 534.679C484.753 589.744 459.907 689.837 461.037 711.82C462.168 733.803 456.854 755.786 480.325 796.946C503.796 838.106 535.614 846.465 552.953 853.541C597.728 871.812 544.029 855.544 588.824 871.314C591.748 871.314 627.795 872.019 640.646 871.314Z" fill="white"/>
<path d="M604.324 1115L602.418 1114.62L601.453 1119.41L605.446 1116.59L604.324 1115ZM640.646 871.314L640.539 869.373L640.646 871.314ZM819.616 970.29L820.037 972.188L819.616 970.29ZM948.42 1002.74L947.959 1004.63L948.186 1004.69H948.42V1002.74ZM1154.8 1019.43L1155.15 1021.34L1154.8 1019.43ZM1238.05 1011.67L1238.09 1013.61L1238.05 1011.67ZM1314.23 996.439L1314 994.508L1314.23 996.439ZM1446.63 927.441L1445.14 926.193L1446.63 927.441ZM1513.92 829.493L1515.4 830.754L1513.92 829.493ZM1529 762.802L1530.94 762.805V762.802H1529ZM1529 668.322H1530.94C1530.94 668.124 1530.91 667.927 1530.85 667.738L1529 668.322ZM1492.97 567.761L1494.65 566.788L1492.97 567.761ZM1415.63 506.489L1416.66 504.838V504.838L1415.63 506.489ZM1286.32 446.621L1285.73 448.474L1286.32 446.621ZM1108.27 406.811L1108.07 408.745L1108.27 406.811ZM888.192 383.478L888.09 385.419L888.192 383.478ZM655.695 406.812L655.066 404.972L655.695 406.812ZM508.225 534.679L506.436 533.917L508.225 534.679ZM461.037 711.82L459.096 711.92L461.037 711.82ZM480.325 796.946L482.014 795.983L480.325 796.946ZM552.953 853.541L552.218 855.341H552.218L552.953 853.541ZM588.824 871.314L588.178 873.148L588.492 873.258H588.824V871.314ZM604.324 1115C606.23 1115.38 606.23 1115.38 606.23 1115.38C606.231 1115.38 606.231 1115.38 606.232 1115.37C606.233 1115.36 606.236 1115.35 606.239 1115.34C606.245 1115.31 606.253 1115.26 606.265 1115.21C606.289 1115.09 606.324 1114.91 606.371 1114.68C606.463 1114.22 606.601 1113.53 606.779 1112.64C607.137 1110.84 607.659 1108.22 608.319 1104.88C609.639 1098.19 611.51 1088.65 613.715 1077.19C618.125 1054.29 623.873 1023.75 629.219 993.228C634.563 962.716 639.512 932.193 642.321 909.33C643.724 897.909 644.602 888.338 644.718 881.616C644.776 878.278 644.65 875.519 644.263 873.558C644.073 872.596 643.788 871.647 643.308 870.9C642.795 870.103 641.877 869.299 640.539 869.373L640.752 873.255C640.217 873.285 639.981 872.916 640.036 873.002C640.124 873.138 640.292 873.522 640.448 874.311C640.752 875.852 640.887 878.272 640.831 881.549C640.718 888.057 639.862 897.463 638.462 908.855C635.666 931.617 630.731 962.059 625.389 992.557C620.048 1023.05 614.305 1053.56 609.897 1076.46C607.693 1087.9 605.823 1097.44 604.504 1104.12C603.845 1107.46 603.323 1110.09 602.966 1111.88C602.788 1112.77 602.651 1113.46 602.558 1113.92C602.512 1114.15 602.477 1114.32 602.453 1114.44C602.441 1114.5 602.433 1114.54 602.427 1114.57C602.424 1114.59 602.421 1114.6 602.42 1114.61C602.419 1114.61 602.419 1114.61 602.418 1114.61C602.418 1114.62 602.418 1114.62 604.324 1115ZM604.324 1115C605.446 1116.59 605.447 1116.59 605.448 1116.59C605.45 1116.58 605.452 1116.58 605.455 1116.58C605.461 1116.58 605.47 1116.57 605.482 1116.56C605.507 1116.54 605.543 1116.52 605.591 1116.49C605.687 1116.42 605.83 1116.32 606.019 1116.18C606.397 1115.92 606.959 1115.52 607.692 1115C609.158 1113.97 611.31 1112.45 614.056 1110.51C619.546 1106.64 627.408 1101.11 636.89 1094.47C655.855 1081.17 681.303 1063.41 707.236 1045.54C733.171 1027.67 759.582 1009.7 780.477 995.984C790.926 989.125 799.981 983.339 806.9 979.165C810.362 977.077 813.27 975.404 815.541 974.204C817.888 972.964 819.358 972.339 820.037 972.188L819.195 968.393C817.928 968.674 816.014 969.557 813.725 970.766C811.36 972.015 808.381 973.731 804.892 975.836C797.909 980.048 788.807 985.865 778.343 992.734C757.411 1006.47 730.972 1024.46 705.03 1042.34C679.085 1060.22 653.628 1077.98 634.658 1091.28C625.173 1097.93 617.309 1103.46 611.816 1107.33C609.07 1109.27 606.916 1110.79 605.449 1111.82C604.716 1112.34 604.154 1112.74 603.775 1113.01C603.586 1113.14 603.442 1113.24 603.346 1113.31C603.298 1113.34 603.262 1113.37 603.238 1113.39C603.226 1113.4 603.216 1113.4 603.21 1113.41C603.207 1113.41 603.205 1113.41 603.203 1113.41C603.202 1113.41 603.201 1113.41 604.324 1115ZM820.037 972.188C821.681 971.823 824.083 971.781 827.254 972.097C830.394 972.41 834.154 973.059 838.45 973.986C847.042 975.84 857.632 978.775 869.445 982.238C893.02 989.15 921.417 998.154 947.959 1004.63L948.881 1000.86C922.455 994.405 894.233 985.454 870.539 978.507C858.718 975.042 848.011 972.072 839.27 970.185C834.899 969.242 830.982 968.561 827.64 968.228C824.329 967.898 821.442 967.894 819.195 968.393L820.037 972.188ZM948.42 1004.69C980.658 1004.69 1016.01 1011.73 1051.62 1017.38C1087.1 1023.01 1122.77 1027.23 1155.15 1021.34L1154.45 1017.51C1122.79 1023.28 1087.71 1019.17 1052.23 1013.54C1016.87 1007.93 981.058 1000.8 948.42 1000.8V1004.69ZM1155.15 1021.34C1183.14 1016.24 1209.64 1014.19 1238.09 1013.61L1238.01 1009.72C1209.42 1010.3 1182.7 1012.37 1154.45 1017.51L1155.15 1021.34ZM1238.09 1013.61C1251.28 1013.34 1264.12 1010.23 1276.73 1006.86C1289.41 1003.48 1301.82 999.852 1314.45 998.37L1314 994.508C1301.01 996.032 1288.26 999.759 1275.73 1003.11C1263.12 1006.47 1250.68 1009.47 1238.01 1009.72L1238.09 1013.61ZM1314.45 998.37C1341.54 995.191 1373.41 979.582 1399.12 964.006C1412.01 956.197 1423.42 948.353 1432 941.997C1436.29 938.819 1439.89 936.007 1442.61 933.75C1445.28 931.531 1447.22 929.76 1448.12 928.689L1445.14 926.193C1444.5 926.955 1442.82 928.518 1440.12 930.758C1437.47 932.959 1433.94 935.727 1429.69 938.873C1421.2 945.163 1409.89 952.938 1397.11 960.68C1371.48 976.207 1340.21 991.432 1314 994.508L1314.45 998.37ZM1448.12 928.689C1449.75 926.741 1453.43 921.18 1458.27 913.733C1463.16 906.209 1469.3 896.634 1475.96 886.462C1489.27 866.098 1504.5 843.55 1515.4 830.754L1512.44 828.232C1501.35 841.249 1485.99 864.011 1472.7 884.334C1466.05 894.507 1459.88 904.12 1455.01 911.615C1450.09 919.188 1446.58 924.476 1445.14 926.193L1448.12 928.689ZM1515.4 830.754C1519.41 826.05 1522.32 819.38 1524.47 812.201C1526.63 804.988 1528.06 797.091 1529.02 789.796C1529.97 782.495 1530.45 775.755 1530.7 770.842C1530.82 768.385 1530.88 766.381 1530.91 764.99C1530.93 764.294 1530.94 763.751 1530.94 763.38C1530.94 763.195 1530.94 763.053 1530.94 762.956C1530.94 762.908 1530.94 762.871 1530.94 762.845C1530.94 762.833 1530.94 762.823 1530.94 762.816C1530.94 762.813 1530.94 762.81 1530.94 762.808C1530.94 762.808 1530.94 762.807 1530.94 762.806C1530.94 762.806 1530.94 762.805 1529 762.802C1527.06 762.799 1527.06 762.799 1527.06 762.799C1527.06 762.799 1527.06 762.8 1527.06 762.8C1527.06 762.801 1527.06 762.803 1527.06 762.806C1527.06 762.811 1527.06 762.819 1527.06 762.83C1527.06 762.852 1527.06 762.886 1527.06 762.931C1527.05 763.021 1527.05 763.157 1527.05 763.335C1527.05 763.692 1527.04 764.221 1527.02 764.901C1526.99 766.263 1526.93 768.231 1526.81 770.65C1526.57 775.491 1526.1 782.122 1525.16 789.292C1524.22 796.468 1522.82 804.143 1520.74 811.086C1518.66 818.062 1515.94 824.131 1512.44 828.232L1515.4 830.754ZM1530.94 762.802V668.322H1527.06V762.802H1530.94ZM1529 668.322C1530.85 667.738 1530.85 667.738 1530.85 667.737C1530.85 667.736 1530.85 667.736 1530.85 667.734C1530.85 667.732 1530.85 667.728 1530.85 667.723C1530.85 667.712 1530.84 667.697 1530.83 667.677C1530.82 667.636 1530.8 667.575 1530.78 667.495C1530.73 667.335 1530.65 667.098 1530.55 666.788C1530.36 666.168 1530.07 665.256 1529.7 664.091C1528.96 661.76 1527.88 658.412 1526.57 654.342C1523.94 646.204 1520.33 635.179 1516.42 623.634C1512.52 612.091 1508.31 600.017 1504.47 589.784C1500.65 579.606 1497.15 571.095 1494.65 566.788L1491.29 568.735C1493.59 572.715 1496.99 580.918 1500.83 591.149C1504.64 601.326 1508.84 613.355 1512.74 624.881C1516.64 636.404 1520.24 647.411 1522.87 655.538C1524.18 659.601 1525.25 662.944 1525.99 665.271C1526.36 666.434 1526.65 667.343 1526.85 667.961C1526.95 668.27 1527.02 668.507 1527.07 668.666C1527.09 668.745 1527.11 668.805 1527.13 668.845C1527.13 668.866 1527.14 668.881 1527.14 668.891C1527.14 668.896 1527.14 668.9 1527.14 668.902C1527.14 668.903 1527.15 668.904 1527.15 668.905C1527.15 668.905 1527.15 668.906 1529 668.322ZM1494.65 566.788C1485.62 551.169 1473.42 540.242 1459.84 530.941C1453.07 526.296 1445.93 522.046 1438.67 517.826C1431.39 513.597 1424.01 509.406 1416.66 504.838L1414.6 508.141C1422.02 512.749 1429.48 516.985 1436.71 521.188C1443.96 525.401 1450.99 529.591 1457.65 534.149C1470.94 543.255 1482.64 553.788 1491.29 568.735L1494.65 566.788ZM1416.66 504.838C1385.12 485.243 1350.37 464.944 1286.91 444.768L1285.73 448.474C1348.78 468.52 1383.23 488.648 1414.6 508.141L1416.66 504.838ZM1286.91 444.768C1223.57 424.632 1166.49 411.005 1108.48 404.878L1108.07 408.745C1165.74 414.835 1222.55 428.388 1285.73 448.474L1286.91 444.768ZM1108.48 404.878C1002.16 393.649 968.504 385.749 888.294 381.537L888.09 385.419C968.193 389.626 1001.41 397.48 1108.07 408.745L1108.48 404.878ZM888.294 381.537C808.101 377.325 742.97 374.935 655.066 404.972L656.323 408.651C743.478 378.871 807.971 381.212 888.09 385.419L888.294 381.537ZM655.066 404.972C585.906 428.604 530.156 478.268 506.436 533.917L510.013 535.441C533.235 480.96 588.039 431.984 656.323 408.651L655.066 404.972ZM506.436 533.917C494.647 561.575 482.539 600.469 473.524 635.167C469.014 652.524 465.27 668.86 462.723 682.248C460.19 695.56 458.799 706.158 459.096 711.92L462.979 711.72C462.71 706.491 464.001 696.334 466.542 682.975C469.07 669.692 472.792 653.442 477.287 636.144C486.28 601.534 498.331 562.848 510.013 535.441L506.436 533.917ZM459.096 711.92C459.375 717.356 459.255 722.752 459.283 728.616C459.311 734.444 459.487 740.632 460.376 747.443C462.157 761.102 466.785 777.127 478.636 797.909L482.014 795.983C470.393 775.605 465.943 760.059 464.231 746.94C463.373 740.363 463.199 734.361 463.171 728.598C463.144 722.871 463.264 717.276 462.979 711.72L459.096 711.92ZM478.636 797.909C502.491 839.743 534.988 848.31 552.218 855.341L553.687 851.741C536.239 844.621 505.101 836.469 482.014 795.983L478.636 797.909ZM552.218 855.341C563.461 859.928 568.307 862.267 570.079 863.432C570.533 863.731 570.605 863.839 570.553 863.772C570.522 863.733 570.352 863.508 570.296 863.124C570.227 862.653 570.365 862.178 570.649 861.822C570.88 861.532 571.13 861.418 571.191 861.391C571.27 861.356 571.305 861.353 571.26 861.363C571.164 861.384 570.997 861.404 570.717 861.428C570.493 861.447 570.131 861.472 569.842 861.509C569.691 861.529 569.492 861.56 569.288 861.615C569.129 861.657 568.743 861.768 568.378 862.061C568.175 862.225 567.92 862.491 567.754 862.887C567.58 863.306 567.561 863.739 567.645 864.122C567.79 864.78 568.21 865.18 568.365 865.322C568.737 865.661 569.254 865.946 569.751 866.194C571.849 867.238 577.027 869.222 588.178 873.148L589.469 869.48C578.223 865.521 573.316 863.625 571.484 862.713C570.999 862.472 570.918 862.388 570.981 862.446C570.982 862.447 571.32 862.729 571.442 863.286C571.516 863.619 571.5 864.006 571.343 864.383C571.196 864.737 570.972 864.965 570.811 865.094C570.654 865.22 570.514 865.287 570.442 865.318C570.366 865.351 570.31 865.366 570.291 865.371C570.258 865.38 570.266 865.375 570.344 865.365C570.517 865.343 570.711 865.33 571.044 865.302C571.322 865.279 571.712 865.243 572.077 865.164C572.262 865.125 572.504 865.061 572.753 864.952C572.985 864.85 573.369 864.646 573.687 864.249C574.057 863.785 574.233 863.183 574.143 862.563C574.065 862.028 573.812 861.631 573.628 861.393C573.268 860.928 572.743 860.531 572.216 860.184C570.064 858.768 564.832 856.288 553.687 851.741L552.218 855.341ZM588.824 873.258C591.632 873.258 627.833 873.964 640.752 873.255L640.539 869.373C627.756 870.074 591.864 869.37 588.824 869.37V873.258Z" fill="black"/>
<path d="M838.562 680.984L806.864 619.586L784.695 576.648L875.489 570.756L978.723 564.056L1075.26 557.791L1098.82 600.75L1132.07 661.387L1160.71 713.626L1192.75 772.051L1089.27 779.165L985.758 786.281L1006.49 826.809C1003.9 826.829 1001.31 826.84 998.719 826.84C970.36 826.84 941.744 828.067 913.442 826.021C908.465 825.661 903.497 825.2 898.543 824.613C875.497 821.884 842.689 816.542 819.674 815.391C819.674 806.028 815.33 788.051 810.928 779.614C803.86 766.067 796.694 751.508 788.849 737.599C783.266 727.701 777.339 718.132 770.858 709.49C765.264 702.032 759.856 694.391 754.66 686.586L838.562 680.984Z" fill="white"/>
<path d="M913.913 826.934L767.007 542.386M1006.56 826.934L860.974 542.386M1111.77 822.963L964.867 537.092M1220.3 822.302L1058.83 527.827M754.66 686.586C738.363 662.108 724.147 636.028 712.819 608.996C704.453 589.031 685.151 562.311 685.151 540.622C733.219 540.622 780.526 542.192 829.214 540.781C874.785 539.46 920.209 535.709 965.645 534.897C1017.16 533.978 1068.73 518.539 1120.2 514.862M754.66 686.586C759.856 694.391 765.264 702.032 770.858 709.49C777.339 718.132 783.266 727.701 788.849 737.599M754.66 686.586L1189.86 657.528M754.66 686.586L753.772 686.645M788.849 737.599C796.694 751.508 803.86 766.067 810.928 779.614C815.33 788.051 819.674 806.028 819.674 815.391C842.689 816.542 875.497 821.884 898.543 824.613C931.672 828.537 965.373 826.84 998.719 826.84C1041.04 826.84 1083.2 823.977 1125.29 823.977H1210.68C1222.4 823.977 1287.44 817.853 1291.93 826.84C1291.13 820.451 1274.91 808.629 1270.31 802.352C1260.93 789.564 1249.23 778.691 1240.41 765.462C1216.4 729.434 1199.24 683.892 1187.62 642.388C1178.31 609.125 1172.34 579.973 1150.41 552.07C1139.65 538.374 1125.85 528.948 1120.2 512M788.849 737.599L1209.71 710.468M788.849 737.599L788.844 737.599M1149.49 552.974L700.833 582.09M1241.47 768.701L817.961 797.817M1172.65 595.987L721.347 625.103" stroke="black" stroke-width="3.97044"/>
<path d="M833.25 563.448C833.418 566.792 836.632 569.533 840.659 569.332C844.686 569.13 847.61 566.081 847.443 562.737C847.276 559.394 844.061 556.652 840.034 556.854C836.007 557.056 833.083 560.105 833.25 563.448Z" fill="#333333" stroke="black" stroke-width="2"/>
<path d="M851.124 587.978L851.119 587.878C848.372 584.927 846.61 581.026 846.392 576.685C846.234 573.533 846.909 570.531 848.224 567.894L832.988 568.657C834.56 571.15 835.532 574.07 835.69 577.221C835.907 581.562 834.543 585.62 832.105 588.83L832.11 588.93L851.124 587.978Z" fill="#333333" stroke="black" stroke-width="2"/>
<rect x="-0.725136" y="0.801618" width="21.5029" height="1.52867" rx="0.764334" transform="matrix(-0.998748 0.0500314 0.0500314 0.998748 850.568 566.738)" fill="#333333" stroke="black" stroke-width="1.52867"/>
<rect x="-0.948716" y="1.04878" width="25.0686" height="2.07602" transform="matrix(-0.998748 0.0500314 0.0500314 0.998748 853.236 588.824)" fill="#333333" stroke="black" stroke-width="2"/>
<rect x="-0.948716" y="1.04878" width="32.1699" height="2.27969" transform="matrix(-0.998748 0.0500314 0.0500314 0.998748 856.986 592.718)" fill="#333333" stroke="black" stroke-width="2"/>
<rect x="-0.948716" y="1.04878" width="36.6968" height="2.27969" transform="matrix(-0.998748 0.0500314 0.0500314 0.998748 859.461 596.879)" fill="#333333" stroke="black" stroke-width="2"/>
<path d="M633.522 1494.5C633.522 1499.66 634.5 1501.83 634.5 1507C634.5 1509.02 634.5 1515 634.5 1515C634.5 1515 634.108 1520.66 633.522 1521C633.146 1521.22 629.812 1520.69 629.5 1521C629.193 1521.31 627.5 1521 626.206 1521.72C624.913 1522.45 623.509 1523.11 621.5 1523.11C620.314 1523.11 618.619 1523.1 617.5 1523.5L610.5 1524C609.243 1524 606.757 1524.5 605.5 1524.5C604.295 1524.5 602.194 1525.28 601 1525.5C599.487 1525.78 598.592 1527 597 1527" stroke="white" stroke-width="7" stroke-linecap="round"/>
<path d="M233.46 1256.5C233.761 1258.29 233.098 1265.7 233.46 1267.5C234.028 1270.33 234.437 1273.16 235.004 1275.98C235.984 1280.86 238.523 1284.89 239.968 1289.58C240.772 1292.19 241.137 1295.19 241.467 1297.91C241.83 1300.9 242.11 1303.95 242.598 1306.92C243.57 1312.83 244.356 1318.78 245.3 1324.7C245.631 1326.78 245.632 1329.04 245.83 1331.15C246.061 1333.62 245.758 1336.17 246.063 1338.63C246.31 1340.61 246.283 1342.59 246.548 1344.57C246.858 1346.88 246.835 1349.32 246.835 1351.66C246.835 1354.11 246.997 1356.56 246.997 1359.03C246.997 1360.82 247.046 1362.87 246.755 1364.64C246.221 1367.87 246.027 1371.07 246.027 1374.35C246.027 1376.4 245.866 1378.41 245.866 1380.46C245.866 1382.36 245.965 1384.3 245.74 1386.18C245.542 1387.84 245.704 1389.62 245.704 1391.29C245.704 1391.78 245.623 1394.16 245.543 1393.99M244.769 1394.74C245.283 1394.93 244.592 1399.87 244.592 1400.63C244.592 1403.05 244.06 1405.42 244.06 1407.86C244.06 1410.03 245.484 1412.36 245.114 1414.5C244.725 1416.74 245.114 1419.71 245.114 1422C245.114 1424.34 244.528 1426.29 245.301 1428.5C245.665 1430.63 244.498 1429.86 244.68 1430.55C245.301 1435.58 245.242 1429.7 245.301 1430.55C245.446 1432.65 245.478 1437.29 245.478 1439.4C245.478 1442.42 245.832 1445.42 245.832 1448.43C245.832 1452.36 246.009 1456.29 246.009 1460.23C246.009 1462.55 246.896 1464.21 246.896 1466.5C246.896 1468.03 247.5 1469.97 247.5 1471.5C247.5 1472.54 246.885 1474.46 246.896 1475.5C246.908 1476.71 246.746 1478.3 246.896 1479.5C247.097 1481.11 247.054 1482.38 247.161 1484C247.286 1485.87 247.5 1487.62 247.5 1489.5C247.5 1493.97 247.274 1493.58 247.919 1498C248.069 1499.03 247.742 1500 247.919 1505C248.097 1510 247.727 1510.58 247.919 1511.5C248.178 1512.74 248.579 1513.22 248.579 1514.5C248.579 1517.46 248.941 1517.64 248.53 1520.57C248.277 1522.37 248.215 1524.18 247.919 1525.98C247.66 1527.57 247.435 1529.16 247.161 1530.75C246.664 1533.63 247.919 1536.07 247.919 1539C247.123 1540.83 247.272 1543 247.161 1545C247.094 1546.21 246.139 1549.31 246 1550.5C245.827 1551.98 245.606 1553.52 245.5 1555C245.31 1557.66 244.922 1558.38 244.5 1561" stroke="white" stroke-width="10" stroke-linecap="round"/>
<rect x="1005.15" y="726.341" width="26.1796" height="0.85837" rx="0.429185" transform="rotate(0.792377 1005.15 726.341)" fill="white" stroke="black" stroke-width="0.85837"/>
<path d="M1006.53 752.63L1006.54 752.275C1009.63 748.72 1011.53 744.089 1011.6 739.006C1011.66 735.226 1010.69 731.668 1008.96 728.595L1027.46 728.851C1025.65 731.875 1024.58 735.405 1024.53 739.184C1024.46 744.268 1026.23 748.949 1029.23 752.589L1029.23 752.944L1006.53 752.63Z" fill="white" stroke="black" stroke-width="2"/>
<rect x="1005.59" y="728.446" width="25.2434" height="1.79459" rx="0.897293" transform="rotate(0.792377 1005.59 728.446)" fill="white" stroke="black" stroke-width="1.79459"/>
<rect x="1002.96" y="754.581" width="29.7773" height="2.78506" transform="rotate(0.792377 1002.96 754.581)" fill="white" stroke="black" stroke-width="2"/>
<rect x="998.729" y="759.308" width="38.1139" height="3.02415" transform="rotate(0.792377 998.729 759.308)" fill="white" stroke="black" stroke-width="2"/>
<rect x="996.003" y="764.295" width="43.4283" height="3.02415" transform="rotate(0.792377 996.003 764.295)" fill="white" stroke="black" stroke-width="2"/>
<mask id="path-33-inside-1_0_1" fill="white">
<path fill-rule="evenodd" clip-rule="evenodd" d="M1021.5 710.43C1022.26 709.687 1022.74 708.652 1022.76 707.502C1022.79 705.202 1020.95 703.311 1018.65 703.279C1016.35 703.247 1014.46 705.086 1014.43 707.387C1014.41 708.537 1014.86 709.585 1015.61 710.349L1011.49 715.09L1018.42 719.707L1025.48 715.284L1021.5 710.43Z"/>
</mask>
<path fill-rule="evenodd" clip-rule="evenodd" d="M1021.5 710.43C1022.26 709.687 1022.74 708.652 1022.76 707.502C1022.79 705.202 1020.95 703.311 1018.65 703.279C1016.35 703.247 1014.46 705.086 1014.43 707.387C1014.41 708.537 1014.86 709.585 1015.61 710.349L1011.49 715.09L1018.42 719.707L1025.48 715.284L1021.5 710.43Z" fill="white"/>
<path d="M1021.5 710.43L1020.1 708.997L1018.79 710.279L1019.95 711.699L1021.5 710.43ZM1015.61 710.349L1017.12 711.66L1018.32 710.272L1017.04 708.955L1015.61 710.349ZM1011.49 715.09L1009.98 713.78L1008.49 715.496L1010.38 716.755L1011.49 715.09ZM1018.42 719.707L1017.32 721.372L1018.39 722.088L1019.49 721.402L1018.42 719.707ZM1025.48 715.284L1026.54 716.979L1028.47 715.772L1027.03 714.015L1025.48 715.284ZM1020.76 707.475C1020.75 708.073 1020.5 708.609 1020.1 708.997L1022.89 711.864C1024.02 710.766 1024.74 709.232 1024.76 707.53L1020.76 707.475ZM1018.62 705.279C1019.82 705.295 1020.78 706.278 1020.76 707.475L1024.76 707.53C1024.81 704.125 1022.08 701.326 1018.68 701.279L1018.62 705.279ZM1016.43 707.415C1016.44 706.219 1017.43 705.262 1018.62 705.279L1018.68 701.279C1015.27 701.232 1012.48 703.954 1012.43 707.36L1016.43 707.415ZM1017.04 708.955C1016.65 708.555 1016.42 708.013 1016.43 707.415L1012.43 707.36C1012.4 709.061 1013.08 710.614 1014.17 711.743L1017.04 708.955ZM1014.1 709.038L1009.98 713.78L1013 716.401L1017.12 711.66L1014.1 709.038ZM1010.38 716.755L1017.32 721.372L1019.53 718.042L1012.6 713.426L1010.38 716.755ZM1019.49 721.402L1026.54 716.979L1024.42 713.589L1017.36 718.012L1019.49 721.402ZM1027.03 714.015L1023.05 709.162L1019.95 711.699L1023.94 716.553L1027.03 714.015Z" fill="black" mask="url(#path-33-inside-1_0_1)"/>
<path d="M1007.05 726.797C1006.3 724.645 1004.05 719.693 1001.02 717.102C998 714.511 1000.61 713.946 1002.29 713.987C1003.17 714.184 1005.32 714.843 1006.92 715.895C1007.93 716.566 1007.89 715.615 1007.83 714.462C1007.78 713.352 1007.71 712.055 1008.58 711.839C1010.33 711.404 1011.7 712.634 1014.13 714.827L1014.19 714.883C1015.47 716.031 1015.81 714.976 1016.23 713.688C1016.63 712.476 1017.09 711.057 1018.45 711.076C1019.82 711.095 1020.24 712.526 1020.61 713.748C1020.99 715.047 1021.3 716.112 1022.61 715L1022.67 714.945C1025.17 712.82 1026.56 711.628 1028.3 712.112C1029.17 712.351 1029.07 713.647 1028.98 714.755C1028.9 715.905 1028.82 716.854 1029.85 716.213C1031.48 715.204 1033.65 714.606 1034.54 714.433C1036.22 714.438 1038.81 715.076 1035.71 717.582C1032.62 720.088 1030.23 724.976 1029.42 727.106L1007.05 726.797Z" fill="white" stroke="black" stroke-width="2"/>
<path d="M1058.22 591.001C1056.33 591.001 1056.76 594.867 1057.21 596.799C1056.7 598.258 1055 598.903 1054.01 599.652C1053.03 600.4 1053.89 601.508 1052.13 602.376C1050.36 603.244 1048.48 604.83 1045.09 607.525C1041.71 610.219 1039.68 611.177 1037.52 611.446C1035.8 611.662 1035.88 612.973 1036.14 613.601L1041.29 619.349H1043.6C1043.75 618.511 1044.76 616.954 1047.1 616.625C1049.43 616.296 1054.76 617.523 1058.03 615.847C1060.64 614.506 1062.37 611.795 1062.91 610.608L1062.05 613.099C1059.9 619.026 1050.77 622.079 1046.48 622.865C1044.93 626.064 1048.94 632.546 1051.15 635.387V636.393H1073.9V635.47C1077.09 632.283 1078.9 625.502 1079.41 622.509C1079.53 625.467 1077.47 631.436 1076.42 634.05L1083.53 636.426C1087.76 629.969 1089.65 619.136 1084.07 608.248C1079.59 599.514 1070.49 596.781 1066.49 596.506L1066.29 597.657C1063.14 592.211 1059.6 590.951 1058.22 591.001Z" fill="#333333" stroke="black" stroke-width="2"/>
<rect x="1049.18" y="637.28" width="25.8486" height="2.19347" fill="#333333" stroke="black" stroke-width="2"/>
<rect x="1045.53" y="641.474" width="33.1545" height="2.403" fill="#333333" stroke="black" stroke-width="2"/>
<rect x="1043.2" y="645.877" width="37.8118" height="2.403" fill="#333333" stroke="black" stroke-width="2"/>
<path d="M2218.12 542.401C2217.99 536.799 2216.84 530.767 2215.76 525.251C2215.76 519.482 2214.53 515.657 2213.5 510C2213.19 508.278 2213.21 502.608 2212.5 501C2211.91 499.668 2211.07 494.783 2210.5 493.5C2209.47 491.192 2208.4 489.379 2208.09 487C2209.22 486.998 2207.02 477 2208 477C2215.98 477 2213.95 475.025 2221.87 474.007C2232.83 472.597 2243.75 470.767 2254.71 469.285C2270.43 467.161 2286.31 466.369 2302 463.869C2310.66 462.488 2319.22 460.732 2327.9 459.425C2336.22 458.171 2344.72 457.383 2352.82 455.085C2363.54 452.047 2375.17 451.524 2386.22 450.537C2394.51 449.798 2402.79 449.095 2411.08 448.385C2421.66 447.478 2432.28 448.172 2442.88 447.76C2461.64 447.031 2480.42 447.274 2499.19 447.274C2507.02 447.274 2515.04 447.747 2522.84 446.892C2529.21 446.193 2535.45 444.987 2541.86 444.427C2552.21 443.524 2562.78 442.473 2572.97 440.434C2579.76 439.076 2586.56 439.045 2593.38 438.212C2600.61 437.331 2607.62 436.65 2614.91 436.65C2629.78 436.65 2645 434.94 2659.66 432.553C2673.2 430.35 2687.09 426.697 2700.91 427.311C2705.53 427.517 2705.33 428.483 2708.06 431.373C2710.32 433.771 2712.1 436.668 2714.45 439.011C2718.83 443.391 2722.85 448.229 2726.81 453.037C2731.68 458.965 2735.49 465.538 2740.21 471.576C2750.05 484.17 2761.29 495.797 2769.61 509.489C2787.1 538.263 2803.82 567.412 2821.31 596.145C2827.45 606.24 2832.52 616.782 2838.01 627.217C2840.9 632.706 2843.33 638.4 2846.24 643.882C2850.01 651.001 2855.27 657.37 2859.6 664.157C2864.95 672.546 2870.69 680.673 2877.27 688.147C2882.92 694.562 2887.46 701.758 2893.18 708.145C2900.73 716.592 2907.84 725.156 2914.84 734.045C2917.82 737.827 2920.99 741.482 2923.66 745.502C2925.84 748.801 2927.45 752.331 2930.05 755.362C2937.3 763.827 2941.42 773.864 2946.05 783.844C2946.21 784.173 2946.44 784.657 2946.75 785.323C2946.51 784.831 2946.28 784.337 2946.05 783.844C2944.48 780.563 2949.78 792.828 2950.25 794.385C2952.71 798.255 2956.67 810 2960 815.5C2967.08 827.196 2964.99 825.663 2968.79 838.5C2969.69 841.534 2970.35 843.665 2971.5 846.5C2972.76 849.598 2941.5 850.5 2941.5 850.5C2941.5 850.5 2900 852 2898.5 852C2897 852 2844.47 857.909 2813 862.501C2791.93 865.577 2769.27 867.223 2748 867.223C2725.67 867.223 2693.81 867.578 2671.5 868.508C2647.66 869.501 2631.88 868.508 2608 868.508C2582.22 868.508 2561.78 871.5 2536 871.5C2512.48 871.5 2488.46 874.792 2465 874.792C2444.07 874.792 2426.78 875.667 2406 878.5C2399.15 879.434 2386.27 879.897 2379.5 880.971L2346 886C2344.71 884.424 2345.78 881.516 2344 880.5C2342.65 879.728 2342.92 876.343 2342.48 874.792C2341.88 872.712 2341.85 870.813 2341.85 868.508C2341.85 865.775 2340.21 863.142 2340.01 860.349C2339.14 848.121 2335.08 836.844 2333.24 824.589C2332.57 820.089 2331.98 814.798 2330.22 810.598C2328.97 807.61 2326.58 805.272 2325.4 802.266C2324.22 799.288 2324.29 795.977 2323.24 792.961C2321.56 788.082 2318.68 783.746 2316.54 779.074C2314.25 774.04 2312.53 768.961 2310.95 763.659C2308.37 754.979 2302.5 748.428 2299.39 740.086C2297.02 733.711 2292.37 728.667 2289.98 722.449C2288.15 717.656 2286.89 712.682 2285.12 707.867C2283.29 702.867 2282.62 697.653 2280.47 692.73C2278.17 687.48 2275.61 682.325 2273.74 676.899C2267.75 659.569 2256.32 644.799 2249.71 627.808C2248.7 625.214 2248.69 622.63 2247.49 620.1C2245.88 616.7 2245.27 612.811 2243.6 609.407C2240.43 602.945 2237.54 596.274 2234.37 589.757C2231.93 584.748 2230.29 579.355 2228.43 574.134C2226.63 569.102 2223.64 563.656 2222.49 558.51C2221.32 553.244 2218.25 547.948 2218.12 542.401Z" fill="white"/>
<path d="M2950.25 794.385C2952.71 798.255 2956.67 810 2960 815.5C2967.08 827.196 2964.99 825.663 2968.79 838.5C2969.69 841.534 2970.35 843.665 2971.5 846.5C2972.76 849.598 2941.5 850.5 2941.5 850.5C2941.5 850.5 2900 852 2898.5 852C2897 852 2844.47 857.909 2813 862.501C2791.93 865.577 2769.27 867.223 2748 867.223C2725.67 867.223 2693.81 867.578 2671.5 868.508C2647.66 869.501 2631.88 868.508 2608 868.508C2582.22 868.508 2561.78 871.5 2536 871.5C2512.48 871.5 2488.46 874.792 2465 874.792C2444.07 874.792 2426.78 875.667 2406 878.5C2399.15 879.434 2386.27 879.897 2379.5 880.971L2346 886C2344.71 884.424 2345.78 881.516 2344 880.5C2342.65 879.728 2342.92 876.343 2342.48 874.792C2341.88 872.712 2341.85 870.813 2341.85 868.508C2341.85 865.775 2340.21 863.142 2340.01 860.349C2339.14 848.121 2335.08 836.844 2333.24 824.589C2332.57 820.089 2331.98 814.798 2330.22 810.598C2328.97 807.61 2326.58 805.272 2325.4 802.266C2324.22 799.288 2324.29 795.977 2323.24 792.961C2321.56 788.082 2318.68 783.746 2316.54 779.074C2314.25 774.04 2312.53 768.961 2310.95 763.659C2308.37 754.979 2302.5 748.428 2299.39 740.086C2297.02 733.711 2292.37 728.667 2289.98 722.449C2288.15 717.656 2286.89 712.682 2285.12 707.867C2283.29 702.867 2282.62 697.653 2280.47 692.73C2278.17 687.48 2275.61 682.325 2273.74 676.899C2267.75 659.569 2256.32 644.799 2249.71 627.808C2248.7 625.214 2248.69 622.63 2247.49 620.1C2245.88 616.7 2245.27 612.811 2243.6 609.407C2240.43 602.945 2237.54 596.274 2234.37 589.757C2231.93 584.748 2230.29 579.355 2228.43 574.134C2226.63 569.102 2223.64 563.656 2222.49 558.51C2221.32 553.244 2218.25 547.948 2218.12 542.401C2217.99 536.799 2216.84 530.767 2215.76 525.251C2215.76 519.482 2214.53 515.657 2213.5 510C2213.19 508.278 2213.21 502.608 2212.5 501C2211.91 499.668 2211.07 494.783 2210.5 493.5C2209.34 490.88 2208.11 488.896 2208 486M2950.25 794.385C2949.55 793.279 2950.62 795.623 2950.25 794.385ZM2950.25 794.385C2949.74 792.672 2943.37 778 2946.75 785.323C2941.82 774.86 2937.66 764.246 2930.05 755.362C2927.45 752.331 2925.84 748.801 2923.66 745.502C2920.99 741.482 2917.82 737.827 2914.84 734.045C2907.84 725.156 2900.73 716.592 2893.18 708.145C2887.46 701.758 2882.92 694.562 2877.27 688.147C2870.69 680.673 2864.95 672.546 2859.6 664.157C2855.27 657.37 2850.01 651.001 2846.24 643.882C2843.33 638.4 2840.9 632.706 2838.01 627.217C2832.52 616.782 2827.45 606.24 2821.31 596.145C2803.82 567.412 2787.1 538.263 2769.61 509.489C2761.29 495.797 2750.05 484.17 2740.21 471.576C2735.49 465.538 2731.68 458.965 2726.81 453.037C2722.85 448.229 2718.83 443.391 2714.45 439.011C2712.1 436.668 2710.32 433.771 2708.06 431.373C2705.33 428.483 2705.53 427.517 2700.91 427.311C2687.09 426.697 2673.2 430.35 2659.66 432.553C2645 434.94 2629.78 436.65 2614.91 436.65C2607.62 436.65 2600.61 437.331 2593.38 438.212C2586.56 439.045 2579.76 439.076 2572.97 440.434C2562.78 442.473 2552.21 443.524 2541.86 444.427C2535.45 444.987 2529.21 446.193 2522.84 446.892C2515.04 447.747 2507.02 447.274 2499.19 447.274C2480.42 447.274 2461.64 447.031 2442.88 447.76C2432.28 448.172 2421.66 447.478 2411.08 448.385C2402.79 449.095 2394.51 449.798 2386.22 450.537C2375.17 451.524 2363.54 452.047 2352.82 455.085C2344.72 457.383 2336.22 458.171 2327.9 459.425C2319.22 460.732 2310.66 462.488 2302 463.869C2286.31 466.369 2270.43 467.161 2254.71 469.285C2243.75 470.767 2232.83 472.597 2221.87 474.007C2213.95 475.025 2215.98 477 2208 477C2207.02 477 2209.22 487 2208.09 487" stroke="white" stroke-width="3" stroke-linecap="round"/>
<path d="M2223.86 544.211C2223.73 538.704 2222.6 532.774 2221.54 527.351C2221.54 521.68 2220.33 517.92 2219.32 512.358C2219.01 510.665 2219.04 505.091 2218.34 503.51C2217.75 502.201 2216.93 497.399 2216.37 496.137C2215.36 493.869 2214.31 492.085 2214 489.747C2215.11 489.746 2212.95 479.916 2213.91 479.916C2221.75 479.916 2219.76 477.974 2227.54 476.974C2238.32 475.587 2249.05 473.788 2259.83 472.332C2275.28 470.244 2290.9 469.465 2306.32 467.007C2314.83 465.65 2323.25 463.924 2331.78 462.639C2339.96 461.405 2348.32 460.631 2356.29 458.372C2366.82 455.385 2378.26 454.871 2389.12 453.901C2397.27 453.174 2405.41 452.483 2413.56 451.785C2423.96 450.893 2434.4 451.575 2444.82 451.171C2463.27 450.454 2481.72 450.693 2500.18 450.693C2507.88 450.693 2515.76 451.158 2523.43 450.317C2529.69 449.63 2535.82 448.445 2542.13 447.894C2552.3 447.006 2562.69 445.973 2572.71 443.969C2579.39 442.633 2586.07 442.603 2592.78 441.785C2599.88 440.918 2606.77 440.249 2613.94 440.249C2628.56 440.249 2643.52 438.567 2657.94 436.221C2671.24 434.055 2684.9 430.464 2698.48 431.067C2703.03 431.27 2702.83 432.219 2705.51 435.061C2707.74 437.418 2709.49 440.266 2711.79 442.57C2716.1 446.875 2720.06 451.632 2723.94 456.358C2728.74 462.186 2732.48 468.648 2737.12 474.584C2746.79 486.965 2757.85 498.395 2766.03 511.855C2783.22 540.144 2799.66 568.799 2816.85 597.046C2822.89 606.971 2827.87 617.335 2833.27 627.593C2836.11 632.989 2838.5 638.587 2841.36 643.976C2845.07 650.975 2850.24 657.236 2854.5 663.909C2859.76 672.155 2865.4 680.145 2871.87 687.493C2877.42 693.8 2881.88 700.874 2887.5 707.153C2894.93 715.457 2901.92 723.876 2908.8 732.614C2911.73 736.333 2914.85 739.926 2917.47 743.878C2919.62 747.121 2921.19 750.592 2923.75 753.571C2930.88 761.893 2934.93 771.759 2939.48 781.57C2939.64 781.893 2939.86 782.37 2940.16 783.026C2939.94 782.541 2939.71 782.056 2939.48 781.57C2937.94 778.349 2943.15 790.404 2943.61 791.934C2946.03 795.739 2949.92 807.285 2953.2 812.692C2960.15 824.19 2958.1 822.683 2961.84 835.303C2962.72 838.286 2963.37 840.38 2964.5 843.168C2965.74 846.213 2935.01 847.1 2935.01 847.1C2935.01 847.1 2894.21 848.575 2892.74 848.575C2891.26 848.575 2839.61 854.384 2808.68 858.899C2787.96 861.922 2765.69 863.541 2744.78 863.541C2722.83 863.541 2691.5 863.89 2669.57 864.803C2646.14 865.78 2630.62 864.803 2607.15 864.803C2581.8 864.803 2561.71 867.745 2536.36 867.745C2513.24 867.745 2489.63 870.981 2466.57 870.981C2445.99 870.981 2428.99 871.841 2408.56 874.627C2401.83 875.545 2389.17 876 2382.51 877.056L2349.58 882C2348.31 880.451 2349.36 877.592 2347.61 876.593C2346.28 875.834 2346.55 872.506 2346.12 870.981C2345.53 868.936 2345.5 867.07 2345.5 864.803C2345.5 862.117 2343.89 859.528 2343.69 856.783C2342.83 844.761 2338.84 833.675 2337.04 821.628C2336.37 817.204 2335.8 812.002 2334.07 807.873C2332.83 804.935 2330.49 802.637 2329.32 799.682C2328.17 796.754 2328.23 793.5 2327.21 790.534C2325.55 785.738 2322.72 781.475 2320.62 776.882C2318.36 771.933 2316.68 766.94 2315.12 761.728C2312.58 753.194 2306.81 746.754 2303.76 738.553C2301.43 732.286 2296.85 727.327 2294.51 721.215C2292.7 716.503 2291.46 711.612 2289.73 706.88C2287.93 701.963 2287.27 696.838 2285.16 691.998C2282.9 686.837 2280.38 681.769 2278.54 676.435C2272.65 659.398 2261.41 644.878 2254.92 628.174C2253.93 625.624 2253.91 623.084 2252.73 620.597C2251.15 617.254 2250.55 613.431 2248.91 610.084C2245.79 603.732 2242.95 597.173 2239.83 590.766C2237.44 585.842 2235.83 580.541 2233.99 575.407C2232.23 570.461 2229.28 565.106 2228.16 560.048C2227.01 554.871 2223.98 549.664 2223.86 544.211Z" fill="white"/>
<path d="M2943.61 791.934C2946.03 795.739 2949.92 807.285 2953.2 812.692C2960.15 824.19 2958.1 822.683 2961.84 835.303C2962.72 838.286 2963.37 840.38 2964.5 843.168C2965.74 846.213 2935.01 847.1 2935.01 847.1C2935.01 847.1 2894.21 848.575 2892.74 848.575C2891.26 848.575 2839.61 854.384 2808.68 858.899C2787.96 861.922 2765.69 863.541 2744.78 863.541C2722.83 863.541 2691.5 863.89 2669.57 864.803C2646.14 865.78 2630.62 864.803 2607.15 864.803C2581.8 864.803 2561.71 867.745 2536.36 867.745C2513.24 867.745 2489.63 870.981 2466.57 870.981C2445.99 870.981 2428.99 871.841 2408.56 874.627C2401.83 875.545 2389.17 876 2382.51 877.056L2349.58 882C2348.31 880.451 2349.36 877.592 2347.61 876.593C2346.28 875.834 2346.55 872.506 2346.12 870.981C2345.53 868.936 2345.5 867.07 2345.5 864.803C2345.5 862.117 2343.89 859.528 2343.69 856.783C2342.83 844.761 2338.84 833.675 2337.04 821.628C2336.37 817.204 2335.8 812.002 2334.07 807.873C2332.83 804.935 2330.49 802.637 2329.32 799.682C2328.17 796.754 2328.23 793.5 2327.21 790.534C2325.55 785.738 2322.72 781.475 2320.62 776.882C2318.36 771.933 2316.68 766.94 2315.12 761.728C2312.58 753.194 2306.81 746.754 2303.76 738.553C2301.43 732.286 2296.85 727.327 2294.51 721.215C2292.7 716.502 2291.46 711.612 2289.73 706.88C2287.93 701.963 2287.27 696.838 2285.16 691.998C2282.9 686.837 2280.38 681.769 2278.54 676.435C2272.65 659.398 2261.41 644.878 2254.92 628.174C2253.93 625.624 2253.91 623.084 2252.73 620.597C2251.15 617.254 2250.55 613.431 2248.91 610.084C2245.79 603.732 2242.95 597.173 2239.83 590.766C2237.44 585.842 2235.83 580.541 2233.99 575.407C2232.23 570.461 2229.28 565.106 2228.16 560.048C2227.01 554.871 2223.98 549.664 2223.86 544.211C2223.73 538.704 2222.6 532.774 2221.54 527.351C2221.54 521.68 2220.33 517.92 2219.32 512.358C2219.01 510.665 2219.04 505.091 2218.34 503.51C2217.75 502.201 2216.93 497.399 2216.37 496.137C2215.22 493.561 2214.02 491.611 2213.91 488.764M2943.61 791.934C2942.92 790.847 2943.98 793.151 2943.61 791.934ZM2943.61 791.934C2943.11 790.25 2936.85 775.826 2940.16 783.026C2935.32 772.739 2931.23 762.304 2923.75 753.571C2921.19 750.592 2919.62 747.121 2917.47 743.877C2914.85 739.926 2911.73 736.333 2908.8 732.614C2901.92 723.876 2894.93 715.457 2887.5 707.153C2881.88 700.874 2877.42 693.8 2871.87 687.493C2865.4 680.145 2859.76 672.155 2854.5 663.909C2850.24 657.236 2845.07 650.975 2841.36 643.976C2838.5 638.587 2836.11 632.989 2833.27 627.593C2827.87 617.335 2822.89 606.971 2816.85 597.046C2799.66 568.799 2783.22 540.144 2766.03 511.855C2757.85 498.395 2746.79 486.965 2737.12 474.584C2732.48 468.648 2728.74 462.186 2723.94 456.358C2720.06 451.632 2716.1 446.875 2711.79 442.57C2709.49 440.266 2707.74 437.418 2705.51 435.061C2702.83 432.219 2703.03 431.27 2698.48 431.067C2684.9 430.464 2671.24 434.055 2657.94 436.221C2643.52 438.567 2628.56 440.249 2613.94 440.249C2606.77 440.249 2599.88 440.918 2592.78 441.784C2586.07 442.603 2579.39 442.633 2572.71 443.969C2562.69 445.973 2552.3 447.006 2542.13 447.894C2535.82 448.445 2529.69 449.63 2523.43 450.317C2515.76 451.158 2507.88 450.693 2500.18 450.693C2481.72 450.693 2463.27 450.454 2444.82 451.171C2434.4 451.575 2423.96 450.893 2413.56 451.785C2405.41 452.483 2397.27 453.174 2389.12 453.901C2378.26 454.871 2366.82 455.385 2356.29 458.372C2348.32 460.631 2339.96 461.405 2331.78 462.639C2323.25 463.924 2314.83 465.65 2306.32 467.007C2290.9 469.465 2275.28 470.244 2259.83 472.332C2249.05 473.788 2238.32 475.587 2227.54 476.974C2219.76 477.974 2221.75 479.916 2213.91 479.916C2212.95 479.916 2215.11 489.747 2214 489.747" stroke="black" stroke-width="2.94927" stroke-linecap="round"/>
<path d="M2498.76 805.934L2351.86 521.386M2591.41 805.934L2445.82 521.386M2696.62 801.963L2549.72 516.092M2805.15 801.302L2643.68 506.827M2339.51 665.586C2323.21 641.108 2309 615.028 2297.67 587.996C2289.3 568.031 2270 541.311 2270 519.622C2318.07 519.622 2365.37 521.192 2414.06 519.781C2459.63 518.46 2505.06 514.709 2550.49 513.897C2602 512.978 2653.58 497.539 2705.05 493.862M2339.51 665.586C2344.7 673.391 2350.11 681.032 2355.71 688.49C2362.19 697.132 2368.11 706.701 2373.7 716.599M2339.51 665.586L2774.71 636.528M2339.51 665.586L2338.62 665.645M2373.7 716.599C2381.54 730.508 2388.71 745.067 2395.78 758.614C2400.18 767.051 2404.52 785.028 2404.52 794.391C2427.54 795.542 2460.35 800.884 2483.39 803.613C2516.52 807.537 2550.22 805.84 2583.57 805.84C2625.89 805.84 2668.04 802.977 2710.14 802.977H2795.53C2807.25 802.977 2872.29 796.853 2876.78 805.84C2875.98 799.451 2859.76 787.629 2855.16 781.352C2845.78 768.564 2834.08 757.691 2825.26 744.462C2801.24 708.434 2784.09 662.892 2772.47 621.388C2763.16 588.125 2757.19 558.973 2735.26 531.07C2724.5 517.374 2710.7 507.948 2705.05 491M2373.7 716.599L2794.56 689.468M2373.7 716.599L2373.69 716.599M2734.34 531.974L2285.68 561.09M2826.32 747.701L2402.81 776.817M2757.5 574.987L2306.2 604.103" stroke="black" stroke-width="3.97044"/>
<path d="M2664.74 576.431C2664.74 579.167 2662.96 582.772 2659.89 585.735C2656.84 588.672 2652.67 590.822 2648.13 590.822C2643.58 590.822 2639.42 588.672 2636.37 585.735C2633.29 582.772 2631.52 579.167 2631.52 576.431C2631.52 573.785 2633.2 571.248 2636.21 569.324C2639.21 567.407 2643.42 566.188 2648.13 566.188C2652.83 566.188 2657.04 567.407 2660.04 569.324C2663.06 571.248 2664.74 573.785 2664.74 576.431Z" fill="#333333" stroke="black" stroke-width="2"/>
<path d="M2646.78 560.588H2647.78V559.588V556H2648.24V559.588V560.588H2649.24H2652.83V561.048H2649.24H2648.24V562.048V565.636H2647.78V562.048V561.048H2646.78H2643.19V560.588H2646.78Z" fill="#333333" stroke="black" stroke-width="2"/>
<rect x="2633.6" y="586.548" width="28.827" height="0.945173" rx="0.472586" fill="#333333" stroke="black" stroke-width="0.945173"/>
<path d="M2635.41 615.572V615.043C2638.77 611.095 2640.79 605.979 2640.79 600.393C2640.79 596.186 2639.64 592.246 2637.64 588.87H2658.38C2656.38 592.246 2655.23 596.186 2655.23 600.393C2655.23 605.979 2657.25 611.095 2660.61 615.043V615.572H2635.41Z" fill="#333333" stroke="black" stroke-width="2"/>
<rect x="2634.11" y="588.858" width="27.7961" height="1.97606" rx="0.988032" fill="#333333" stroke="black" stroke-width="1.97606"/>
<rect x="2631.52" y="617.572" width="32.9908" height="3.26895" fill="#333333" stroke="black" stroke-width="2"/>
<rect x="2626.93" y="622.841" width="42.1704" height="3.53222" fill="#333333" stroke="black" stroke-width="2"/>
<rect x="2624" y="628.373" width="48.0222" height="3.53222" fill="#333333" stroke="black" stroke-width="2"/>
<circle cx="2648.11" cy="560.771" r="1.72384" fill="#333333" stroke="black" stroke-width="2"/>
<path d="M1367.39 462.316C1366.9 466.518 1369.91 470.321 1374.11 470.809C1378.32 471.298 1382.12 468.288 1382.61 464.086L1367.39 462.316ZM1377.6 460.735L1381.48 467.338H1381.48L1377.6 460.735ZM1397.57 442.811L1392.06 437.492L1397.57 442.811ZM1484.12 377.367L1488.06 383.938L1484.12 377.367ZM1559.03 341.357L1555.48 334.571L1559.03 341.357ZM1587.11 325.9L1584.07 318.871L1587.11 325.9ZM1667.77 292.274L1665.34 285.007L1667.77 292.274ZM1917.84 270.815L1917.58 278.471L1917.84 270.815ZM1972.62 278.215L1973.82 270.649L1972.62 278.215ZM2041.19 285.121L2042.63 277.598L2041.19 285.121ZM2158.26 303.373L2157.3 310.972L2158.26 303.373ZM2365.33 345.55L2363.23 352.917L2365.33 345.55ZM2417.21 368.817L2421.56 362.511L2417.21 368.817ZM2450.49 396.853L2455.4 390.968L2450.49 396.853ZM2523.95 451.526L2529.28 446.02L2523.95 451.526ZM2556.51 485.655C2560.73 485.806 2564.28 482.502 2564.43 478.275L2566.91 409.382C2567.06 405.154 2563.75 401.604 2559.53 401.452C2555.3 401.301 2551.75 404.605 2551.6 408.832L2549.4 470.071L2488.16 467.873C2483.93 467.722 2480.38 471.026 2480.23 475.253C2480.08 479.481 2483.39 483.031 2487.61 483.183L2556.51 485.655ZM1382.61 464.086C1382.55 464.578 1382.37 465.385 1381.83 466.259C1381.28 467.139 1380.63 467.679 1380.23 467.959C1379.92 468.169 1379.69 468.264 1380.02 468.102C1380.22 468.007 1380.84 467.715 1381.48 467.338L1373.72 454.131C1373.73 454.127 1373.73 454.128 1373.35 454.312C1373.11 454.43 1372.34 454.791 1371.57 455.322C1370.69 455.922 1369.64 456.838 1368.79 458.215C1367.94 459.587 1367.54 461.014 1367.39 462.316L1382.61 464.086ZM1381.48 467.338C1390.42 462.083 1397.2 454.229 1403.08 448.131L1392.06 437.492C1385.29 444.512 1380.36 450.231 1373.72 454.131L1381.48 467.338ZM1403.08 448.131C1427.8 422.521 1457.55 402.221 1488.06 383.938L1480.18 370.797C1449.25 389.331 1418.17 410.446 1392.06 437.492L1403.08 448.131ZM1488.06 383.938C1499.59 377.022 1511.79 371.404 1524.42 365.82C1536.93 360.288 1549.99 354.74 1562.59 348.142L1555.48 334.571C1543.46 340.868 1531.03 346.148 1518.23 351.809C1505.54 357.418 1492.59 363.357 1480.18 370.797L1488.06 383.938ZM1562.59 348.142C1567.48 345.58 1572.36 342.596 1576.85 339.96C1581.46 337.251 1585.8 334.814 1590.16 332.929L1584.07 318.871C1578.8 321.153 1573.78 323.997 1569.09 326.751C1564.28 329.578 1559.93 332.239 1555.48 334.571L1562.59 348.142ZM1590.16 332.929C1617.13 321.252 1643.16 308.554 1670.19 299.54L1665.34 285.007C1637.47 294.302 1610.18 307.565 1584.07 318.871L1590.16 332.929ZM1670.19 299.54C1704.9 287.967 1742.05 285.689 1779.74 280.627L1777.7 265.444C1741.51 270.304 1701.87 272.828 1665.34 285.007L1670.19 299.54ZM1779.74 280.627C1825.56 274.473 1870.53 276.923 1917.58 278.471L1918.09 263.16C1871.58 261.63 1825.09 259.079 1777.7 265.444L1779.74 280.627ZM1917.58 278.471C1935.08 279.046 1952.93 282.851 1971.43 285.78L1973.82 270.649C1956.43 267.896 1936.85 263.777 1918.09 263.16L1917.58 278.471ZM1971.43 285.78C1983.19 287.642 1995.1 288.31 2006.47 289.042C2017.98 289.783 2029.02 290.591 2039.75 292.644L2042.63 277.598C2030.84 275.342 2018.92 274.492 2007.45 273.754C1995.84 273.007 1984.73 272.376 1973.82 270.649L1971.43 285.78ZM2039.75 292.644C2078.55 300.069 2118.21 306.047 2157.3 310.972L2159.22 295.773C2120.36 290.878 2081.04 284.948 2042.63 277.598L2039.75 292.644ZM2157.3 310.972C2227.14 319.77 2295.16 333.557 2363.23 352.917L2367.42 338.182C2298.59 318.607 2229.82 304.666 2159.22 295.773L2157.3 310.972ZM2363.23 352.917C2381.33 358.065 2397.56 364.573 2412.86 375.122L2421.56 362.511C2404.43 350.699 2386.5 343.607 2367.42 338.182L2363.23 352.917ZM2412.86 375.122C2418.6 379.082 2423.81 383.481 2429.1 388.185C2434.3 392.796 2439.79 397.908 2445.59 402.737L2455.4 390.968C2449.84 386.34 2444.83 381.661 2439.28 376.731C2433.83 371.895 2428.07 367.005 2421.56 362.511L2412.86 375.122ZM2445.59 402.737C2461.06 415.629 2477.13 429.83 2494.98 440.86L2503.03 427.827C2486.36 417.526 2471.39 404.296 2455.4 390.968L2445.59 402.737ZM2494.98 440.86C2503.74 446.271 2512.52 451.124 2518.63 457.033L2529.28 446.02C2521.62 438.614 2510.68 432.553 2503.03 427.827L2494.98 440.86ZM2518.63 457.033C2524.24 462.461 2530.56 466.836 2536.12 470.804C2541.86 474.901 2546.92 478.648 2551.17 483.219L2562.39 472.781C2556.96 466.946 2550.72 462.401 2545.02 458.335C2539.14 454.141 2533.89 450.482 2529.28 446.02L2518.63 457.033Z" fill="black"/>
<path d="M2616.3 182.304C2622.28 182.304 2626.63 183.477 2629.36 185.824C2632.09 188.171 2633.46 191.477 2633.46 195.744C2633.46 197.621 2633.14 199.435 2632.5 201.184C2631.9 202.891 2630.9 204.427 2629.49 205.792C2628.08 207.157 2626.2 208.245 2623.86 209.056C2621.51 209.824 2618.63 210.208 2615.22 210.208H2609.97V228H2604.21V182.304H2616.3ZM2615.79 187.232H2609.97V205.28H2614.58C2617.48 205.28 2619.89 204.981 2621.81 204.384C2623.73 203.744 2625.16 202.741 2626.1 201.376C2627.03 200.011 2627.5 198.219 2627.5 196C2627.5 193.056 2626.57 190.859 2624.69 189.408C2622.81 187.957 2619.85 187.232 2615.79 187.232ZM2636.81 193.696H2642.83L2650.25 213.216C2650.68 214.368 2651.06 215.477 2651.41 216.544C2651.79 217.611 2652.13 218.656 2652.43 219.68C2652.73 220.661 2652.96 221.621 2653.13 222.56H2653.39C2653.65 221.493 2654.05 220.107 2654.61 218.4C2655.16 216.651 2655.74 214.901 2656.33 213.152L2663.31 193.696H2669.39L2654.61 232.736C2653.8 234.869 2652.84 236.725 2651.73 238.304C2650.66 239.925 2649.34 241.163 2647.76 242.016C2646.22 242.912 2644.34 243.36 2642.13 243.36C2641.1 243.36 2640.21 243.296 2639.44 243.168C2638.67 243.083 2638.01 242.976 2637.45 242.848V238.368C2637.92 238.453 2638.48 238.539 2639.12 238.624C2639.8 238.709 2640.5 238.752 2641.23 238.752C2642.55 238.752 2643.68 238.496 2644.62 237.984C2645.6 237.515 2646.44 236.811 2647.12 235.872C2647.8 234.976 2648.38 233.909 2648.85 232.672L2650.64 228.128L2636.81 193.696ZM2688.58 228.64C2685.55 228.64 2682.84 228.021 2680.45 226.784C2678.1 225.547 2676.24 223.627 2674.88 221.024C2673.56 218.421 2672.9 215.093 2672.9 211.04C2672.9 206.816 2673.6 203.381 2675.01 200.736C2676.42 198.091 2678.31 196.149 2680.7 194.912C2683.14 193.675 2685.89 193.056 2688.96 193.056C2690.71 193.056 2692.39 193.248 2694.02 193.632C2695.64 193.973 2696.96 194.4 2697.98 194.912L2696.26 199.584C2695.23 199.2 2694.04 198.837 2692.67 198.496C2691.31 198.155 2690.03 197.984 2688.83 197.984C2686.53 197.984 2684.63 198.475 2683.14 199.456C2681.64 200.437 2680.53 201.888 2679.81 203.808C2679.08 205.728 2678.72 208.117 2678.72 210.976C2678.72 213.707 2679.08 216.032 2679.81 217.952C2680.53 219.872 2681.62 221.323 2683.07 222.304C2684.52 223.285 2686.34 223.776 2688.51 223.776C2690.39 223.776 2692.03 223.584 2693.44 223.2C2694.89 222.816 2696.21 222.347 2697.41 221.792V226.784C2696.26 227.381 2694.98 227.829 2693.57 228.128C2692.2 228.469 2690.54 228.64 2688.58 228.64ZM2719.33 228.64C2716.3 228.64 2713.59 228.021 2711.2 226.784C2708.85 225.547 2706.99 223.627 2705.63 221.024C2704.31 218.421 2703.65 215.093 2703.65 211.04C2703.65 206.816 2704.35 203.381 2705.76 200.736C2707.17 198.091 2709.06 196.149 2711.45 194.912C2713.89 193.675 2716.64 193.056 2719.71 193.056C2721.46 193.056 2723.14 193.248 2724.77 193.632C2726.39 193.973 2727.71 194.4 2728.73 194.912L2727.01 199.584C2725.98 199.2 2724.79 198.837 2723.42 198.496C2722.06 198.155 2720.78 197.984 2719.58 197.984C2717.28 197.984 2715.38 198.475 2713.89 199.456C2712.39 200.437 2711.28 201.888 2710.56 203.808C2709.83 205.728 2709.47 208.117 2709.47 210.976C2709.47 213.707 2709.83 216.032 2710.56 217.952C2711.28 219.872 2712.37 221.323 2713.82 222.304C2715.27 223.285 2717.09 223.776 2719.26 223.776C2721.14 223.776 2722.78 223.584 2724.19 223.2C2725.64 222.816 2726.96 222.347 2728.16 221.792V226.784C2727.01 227.381 2725.73 227.829 2724.32 228.128C2722.95 228.469 2721.29 228.64 2719.33 228.64ZM2756.6 193.696H2762.75L2748.09 210.208L2763.96 228H2757.44L2741.95 210.592V228H2736.32V193.696H2741.95V210.336L2756.6 193.696ZM2783.18 193.12C2787.36 193.12 2790.46 194.037 2792.46 195.872C2794.47 197.707 2795.47 200.629 2795.47 204.64V228H2791.37L2790.29 223.136H2790.03C2789.05 224.373 2788.02 225.419 2786.96 226.272C2785.93 227.083 2784.74 227.68 2783.37 228.064C2782.05 228.448 2780.43 228.64 2778.51 228.64C2776.46 228.64 2774.61 228.277 2772.94 227.552C2771.32 226.827 2770.04 225.717 2769.1 224.224C2768.16 222.688 2767.69 220.768 2767.69 218.464C2767.69 215.051 2769.04 212.427 2771.73 210.592C2774.41 208.715 2778.55 207.691 2784.14 207.52L2789.97 207.328V205.28C2789.97 202.421 2789.35 200.437 2788.11 199.328C2786.87 198.219 2785.12 197.664 2782.86 197.664C2781.07 197.664 2779.36 197.941 2777.74 198.496C2776.12 199.008 2774.61 199.605 2773.2 200.288L2771.47 196.064C2772.96 195.253 2774.73 194.571 2776.78 194.016C2778.83 193.419 2780.96 193.12 2783.18 193.12ZM2784.85 211.424C2780.58 211.595 2777.61 212.277 2775.95 213.472C2774.33 214.667 2773.52 216.352 2773.52 218.528C2773.52 220.448 2774.09 221.856 2775.25 222.752C2776.44 223.648 2777.96 224.096 2779.79 224.096C2782.69 224.096 2785.1 223.307 2787.02 221.728C2788.94 220.107 2789.9 217.632 2789.9 214.304V211.232L2784.85 211.424ZM2808.18 228H2801.65L2811.44 213.6C2810.12 213.259 2808.84 212.725 2807.6 212C2806.36 211.232 2805.36 210.187 2804.59 208.864C2803.83 207.499 2803.44 205.813 2803.44 203.808C2803.44 200.523 2804.55 198.027 2806.77 196.32C2808.99 194.571 2811.93 193.696 2815.6 193.696H2830.96V228H2825.33V214.368H2817.01L2808.18 228ZM2808.88 203.872C2808.88 205.835 2809.61 207.307 2811.06 208.288C2812.55 209.227 2814.62 209.696 2817.27 209.696H2825.33V198.368H2816.18C2813.57 198.368 2811.7 198.88 2810.55 199.904C2809.44 200.928 2808.88 202.251 2808.88 203.872ZM2632.43 286.696V321H2626.8V291.496H2609.07V321H2603.44V286.696H2632.43ZM2656.37 286.12C2660.55 286.12 2663.64 287.037 2665.65 288.872C2667.65 290.707 2668.66 293.629 2668.66 297.64V321H2664.56L2663.47 316.136H2663.22C2662.24 317.373 2661.21 318.419 2660.15 319.272C2659.12 320.083 2657.93 320.68 2656.56 321.064C2655.24 321.448 2653.62 321.64 2651.7 321.64C2649.65 321.64 2647.79 321.277 2646.13 320.552C2644.51 319.827 2643.23 318.717 2642.29 317.224C2641.35 315.688 2640.88 313.768 2640.88 311.464C2640.88 308.051 2642.23 305.427 2644.91 303.592C2647.6 301.715 2651.74 300.691 2657.33 300.52L2663.15 300.328V298.28C2663.15 295.421 2662.53 293.437 2661.3 292.328C2660.06 291.219 2658.31 290.664 2656.05 290.664C2654.26 290.664 2652.55 290.941 2650.93 291.496C2649.31 292.008 2647.79 292.605 2646.39 293.288L2644.66 289.064C2646.15 288.253 2647.92 287.571 2649.97 287.016C2652.02 286.419 2654.15 286.12 2656.37 286.12ZM2658.03 304.424C2653.77 304.595 2650.8 305.277 2649.14 306.472C2647.52 307.667 2646.71 309.352 2646.71 311.528C2646.71 313.448 2647.28 314.856 2648.43 315.752C2649.63 316.648 2651.14 317.096 2652.98 317.096C2655.88 317.096 2658.29 316.307 2660.21 314.728C2662.13 313.107 2663.09 310.632 2663.09 307.304V304.232L2658.03 304.424ZM2695.57 286.056C2699.8 286.056 2703.19 287.528 2705.75 290.472C2708.35 293.416 2709.65 297.853 2709.65 303.784C2709.65 307.667 2709.06 310.952 2707.86 313.64C2706.71 316.285 2705.07 318.291 2702.93 319.656C2700.84 320.979 2698.37 321.64 2695.51 321.64C2693.76 321.64 2692.2 321.405 2690.84 320.936C2689.47 320.467 2688.3 319.869 2687.32 319.144C2686.38 318.376 2685.57 317.544 2684.88 316.648H2684.5C2684.59 317.373 2684.67 318.291 2684.76 319.4C2684.84 320.509 2684.88 321.469 2684.88 322.28V336.36H2679.25V286.696H2683.86L2684.63 291.368H2684.88C2685.57 290.387 2686.38 289.491 2687.32 288.68C2688.3 287.869 2689.45 287.229 2690.77 286.76C2692.14 286.291 2693.74 286.056 2695.57 286.056ZM2694.55 290.792C2692.24 290.792 2690.39 291.24 2688.98 292.136C2687.57 292.989 2686.55 294.291 2685.91 296.04C2685.27 297.789 2684.93 300.008 2684.88 302.696V303.784C2684.88 306.6 2685.18 308.989 2685.78 310.952C2686.38 312.915 2687.38 314.408 2688.79 315.432C2690.24 316.456 2692.2 316.968 2694.68 316.968C2696.77 316.968 2698.47 316.392 2699.8 315.24C2701.16 314.088 2702.16 312.531 2702.8 310.568C2703.49 308.563 2703.83 306.28 2703.83 303.72C2703.83 299.795 2703.06 296.659 2701.52 294.312C2700.03 291.965 2697.71 290.792 2694.55 290.792ZM2741.68 291.432H2730.48V321H2724.91V291.432H2713.84V286.696H2741.68V291.432ZM2753.75 307.624C2753.75 308.008 2753.73 308.563 2753.69 309.288C2753.69 309.971 2753.67 310.717 2753.62 311.528C2753.58 312.296 2753.54 313.043 2753.5 313.768C2753.45 314.451 2753.41 315.005 2753.37 315.432L2771.74 286.696H2778.65V321H2773.4V300.776C2773.4 300.093 2773.4 299.197 2773.4 298.088C2773.44 296.979 2773.49 295.891 2773.53 294.824C2773.57 293.715 2773.61 292.883 2773.66 292.328L2755.42 321H2748.44V286.696H2753.75V307.624ZM2791.68 321H2785.15L2794.94 306.6C2793.62 306.259 2792.34 305.725 2791.1 305C2789.86 304.232 2788.86 303.187 2788.09 301.864C2787.33 300.499 2786.94 298.813 2786.94 296.808C2786.94 293.523 2788.05 291.027 2790.27 289.32C2792.49 287.571 2795.43 286.696 2799.1 286.696H2814.46V321H2808.83V307.368H2800.51L2791.68 321ZM2792.38 296.872C2792.38 298.835 2793.11 300.307 2794.56 301.288C2796.05 302.227 2798.12 302.696 2800.77 302.696H2808.83V291.368H2799.68C2797.07 291.368 2795.2 291.88 2794.05 292.904C2792.94 293.928 2792.38 295.251 2792.38 296.872Z" fill="black"/>
<path d="M588.636 346V299.455H616.727V304.455H594.273V320.182H615.273V325.182H594.273V341H617.091V346H588.636ZM631.523 325V346H626.159V311.091H631.341V316.545H631.795C632.614 314.773 633.856 313.348 635.523 312.273C637.189 311.182 639.341 310.636 641.977 310.636C644.341 310.636 646.409 311.121 648.182 312.091C649.955 313.045 651.333 314.5 652.318 316.455C653.303 318.394 653.795 320.848 653.795 323.818V346H648.432V324.182C648.432 321.439 647.72 319.303 646.295 317.773C644.871 316.227 642.917 315.455 640.432 315.455C638.72 315.455 637.189 315.826 635.841 316.568C634.508 317.311 633.455 318.394 632.682 319.818C631.909 321.242 631.523 322.97 631.523 325ZM677.688 359.818C675.097 359.818 672.869 359.485 671.006 358.818C669.142 358.167 667.589 357.303 666.347 356.227C665.119 355.167 664.142 354.03 663.415 352.818L667.688 349.818C668.172 350.455 668.786 351.182 669.528 352C670.271 352.833 671.286 353.553 672.574 354.159C673.877 354.78 675.581 355.091 677.688 355.091C680.506 355.091 682.831 354.409 684.665 353.045C686.498 351.682 687.415 349.545 687.415 346.636V339.545H686.96C686.566 340.182 686.006 340.97 685.278 341.909C684.566 342.833 683.536 343.659 682.188 344.386C680.854 345.098 679.051 345.455 676.778 345.455C673.96 345.455 671.43 344.788 669.188 343.455C666.96 342.121 665.195 340.182 663.892 337.636C662.604 335.091 661.96 332 661.96 328.364C661.96 324.788 662.589 321.674 663.847 319.023C665.104 316.356 666.854 314.295 669.097 312.841C671.339 311.371 673.93 310.636 676.869 310.636C679.142 310.636 680.945 311.015 682.278 311.773C683.627 312.515 684.657 313.364 685.369 314.318C686.097 315.258 686.657 316.03 687.051 316.636H687.597V311.091H692.778V347C692.778 350 692.097 352.439 690.733 354.318C689.384 356.212 687.566 357.598 685.278 358.477C683.006 359.371 680.475 359.818 677.688 359.818ZM677.506 340.636C679.657 340.636 681.475 340.144 682.96 339.159C684.445 338.174 685.574 336.758 686.347 334.909C687.119 333.061 687.506 330.848 687.506 328.273C687.506 325.758 687.127 323.538 686.369 321.614C685.612 319.689 684.491 318.182 683.006 317.091C681.521 316 679.688 315.455 677.506 315.455C675.233 315.455 673.339 316.03 671.824 317.182C670.324 318.333 669.195 319.879 668.438 321.818C667.695 323.758 667.324 325.909 667.324 328.273C667.324 330.697 667.703 332.841 668.46 334.705C669.233 336.553 670.369 338.008 671.869 339.068C673.384 340.114 675.263 340.636 677.506 340.636ZM707.96 299.455V346H702.597V299.455H707.96ZM717.784 346V311.091H723.148V346H717.784ZM720.511 305.273C719.466 305.273 718.564 304.917 717.807 304.205C717.064 303.492 716.693 302.636 716.693 301.636C716.693 300.636 717.064 299.78 717.807 299.068C718.564 298.356 719.466 298 720.511 298C721.557 298 722.451 298.356 723.193 299.068C723.951 299.78 724.33 300.636 724.33 301.636C724.33 302.636 723.951 303.492 723.193 304.205C722.451 304.917 721.557 305.273 720.511 305.273ZM757.699 318.909L752.881 320.273C752.578 319.47 752.131 318.689 751.54 317.932C750.964 317.159 750.176 316.523 749.176 316.023C748.176 315.523 746.896 315.273 745.335 315.273C743.199 315.273 741.419 315.765 739.994 316.75C738.585 317.72 737.881 318.955 737.881 320.455C737.881 321.788 738.366 322.841 739.335 323.614C740.305 324.386 741.82 325.03 743.881 325.545L749.062 326.818C752.184 327.576 754.509 328.735 756.04 330.295C757.57 331.841 758.335 333.833 758.335 336.273C758.335 338.273 757.759 340.061 756.608 341.636C755.472 343.212 753.881 344.455 751.835 345.364C749.79 346.273 747.411 346.727 744.699 346.727C741.138 346.727 738.191 345.955 735.858 344.409C733.525 342.864 732.047 340.606 731.426 337.636L736.517 336.364C737.002 338.242 737.919 339.652 739.267 340.591C740.631 341.53 742.411 342 744.608 342C747.108 342 749.093 341.47 750.562 340.409C752.047 339.333 752.79 338.045 752.79 336.545C752.79 335.333 752.366 334.318 751.517 333.5C750.669 332.667 749.366 332.045 747.608 331.636L741.79 330.273C738.593 329.515 736.244 328.341 734.744 326.75C733.259 325.144 732.517 323.136 732.517 320.727C732.517 318.758 733.07 317.015 734.176 315.5C735.297 313.985 736.82 312.795 738.744 311.932C740.684 311.068 742.881 310.636 745.335 310.636C748.79 310.636 751.502 311.394 753.472 312.909C755.456 314.424 756.866 316.424 757.699 318.909ZM771.773 325V346H766.409V299.455H771.773V316.545H772.227C773.045 314.742 774.273 313.311 775.909 312.25C777.561 311.174 779.758 310.636 782.5 310.636C784.879 310.636 786.962 311.114 788.75 312.068C790.538 313.008 791.924 314.455 792.909 316.409C793.909 318.348 794.409 320.818 794.409 323.818V346H789.045V324.182C789.045 321.409 788.326 319.265 786.886 317.75C785.462 316.22 783.485 315.455 780.955 315.455C779.197 315.455 777.621 315.826 776.227 316.568C774.848 317.311 773.758 318.394 772.955 319.818C772.167 321.242 771.773 322.97 771.773 325ZM862.222 322.727C862.222 327.636 861.335 331.879 859.562 335.455C857.79 339.03 855.358 341.788 852.267 343.727C849.176 345.667 845.646 346.636 841.676 346.636C837.706 346.636 834.176 345.667 831.085 343.727C827.994 341.788 825.563 339.03 823.79 335.455C822.017 331.879 821.131 327.636 821.131 322.727C821.131 317.818 822.017 313.576 823.79 310C825.563 306.424 827.994 303.667 831.085 301.727C834.176 299.788 837.706 298.818 841.676 298.818C845.646 298.818 849.176 299.788 852.267 301.727C855.358 303.667 857.79 306.424 859.562 310C861.335 313.576 862.222 317.818 862.222 322.727ZM856.767 322.727C856.767 318.697 856.093 315.295 854.744 312.523C853.411 309.75 851.6 307.652 849.312 306.227C847.04 304.803 844.494 304.091 841.676 304.091C838.858 304.091 836.305 304.803 834.017 306.227C831.744 307.652 829.934 309.75 828.585 312.523C827.252 315.295 826.585 318.697 826.585 322.727C826.585 326.758 827.252 330.159 828.585 332.932C829.934 335.705 831.744 337.803 834.017 339.227C836.305 340.652 838.858 341.364 841.676 341.364C844.494 341.364 847.04 340.652 849.312 339.227C851.6 337.803 853.411 335.705 854.744 332.932C856.093 330.159 856.767 326.758 856.767 322.727ZM870.972 359.091V311.091H876.153V316.636H876.79C877.184 316.03 877.729 315.258 878.426 314.318C879.138 313.364 880.153 312.515 881.472 311.773C882.805 311.015 884.608 310.636 886.881 310.636C889.82 310.636 892.411 311.371 894.653 312.841C896.896 314.311 898.646 316.394 899.903 319.091C901.161 321.788 901.79 324.97 901.79 328.636C901.79 332.333 901.161 335.538 899.903 338.25C898.646 340.947 896.903 343.038 894.676 344.523C892.449 345.992 889.881 346.727 886.972 346.727C884.729 346.727 882.934 346.356 881.585 345.614C880.237 344.856 879.199 344 878.472 343.045C877.744 342.076 877.184 341.273 876.79 340.636H876.335V359.091H870.972ZM876.244 328.545C876.244 331.182 876.631 333.508 877.403 335.523C878.176 337.523 879.305 339.091 880.79 340.227C882.275 341.348 884.093 341.909 886.244 341.909C888.487 341.909 890.358 341.318 891.858 340.136C893.373 338.939 894.509 337.333 895.267 335.318C896.04 333.288 896.426 331.03 896.426 328.545C896.426 326.091 896.047 323.879 895.29 321.909C894.547 319.924 893.419 318.356 891.903 317.205C890.403 316.038 888.517 315.455 886.244 315.455C884.063 315.455 882.229 316.008 880.744 317.114C879.259 318.205 878.138 319.735 877.381 321.705C876.623 323.659 876.244 325.939 876.244 328.545ZM924.608 346.727C921.244 346.727 918.343 345.985 915.903 344.5C913.479 343 911.608 340.909 910.29 338.227C908.987 335.53 908.335 332.394 908.335 328.818C908.335 325.242 908.987 322.091 910.29 319.364C911.608 316.621 913.441 314.485 915.79 312.955C918.153 311.409 920.911 310.636 924.062 310.636C925.881 310.636 927.676 310.939 929.449 311.545C931.222 312.152 932.835 313.136 934.29 314.5C935.744 315.848 936.903 317.636 937.767 319.864C938.631 322.091 939.062 324.833 939.062 328.091V330.364H912.153V325.727H933.608C933.608 323.758 933.214 322 932.426 320.455C931.653 318.909 930.547 317.689 929.108 316.795C927.684 315.902 926.002 315.455 924.062 315.455C921.926 315.455 920.078 315.985 918.517 317.045C916.972 318.091 915.782 319.455 914.949 321.136C914.116 322.818 913.699 324.621 913.699 326.545V329.636C913.699 332.273 914.153 334.508 915.062 336.341C915.987 338.159 917.267 339.545 918.903 340.5C920.54 341.439 922.441 341.909 924.608 341.909C926.017 341.909 927.29 341.712 928.426 341.318C929.578 340.909 930.57 340.303 931.403 339.5C932.237 338.682 932.881 337.667 933.335 336.455L938.517 337.909C937.972 339.667 937.055 341.212 935.767 342.545C934.479 343.864 932.888 344.894 930.994 345.636C929.1 346.364 926.972 346.727 924.608 346.727ZM952.585 325V346H947.222V311.091H952.403V316.545H952.858C953.676 314.773 954.919 313.348 956.585 312.273C958.252 311.182 960.403 310.636 963.04 310.636C965.403 310.636 967.472 311.121 969.244 312.091C971.017 313.045 972.396 314.5 973.381 316.455C974.366 318.394 974.858 320.848 974.858 323.818V346H969.494V324.182C969.494 321.439 968.782 319.303 967.358 317.773C965.934 316.227 963.979 315.455 961.494 315.455C959.782 315.455 958.252 315.826 956.903 316.568C955.57 317.311 954.517 318.394 953.744 319.818C952.972 321.242 952.585 322.97 952.585 325ZM984.659 346V311.091H990.023V346H984.659ZM987.386 305.273C986.341 305.273 985.439 304.917 984.682 304.205C983.939 303.492 983.568 302.636 983.568 301.636C983.568 300.636 983.939 299.78 984.682 299.068C985.439 298.356 986.341 298 987.386 298C988.432 298 989.326 298.356 990.068 299.068C990.826 299.78 991.205 300.636 991.205 301.636C991.205 302.636 990.826 303.492 990.068 304.205C989.326 304.917 988.432 305.273 987.386 305.273ZM1005.21 325V346H999.847V311.091H1005.03V316.545H1005.48C1006.3 314.773 1007.54 313.348 1009.21 312.273C1010.88 311.182 1013.03 310.636 1015.66 310.636C1018.03 310.636 1020.1 311.121 1021.87 312.091C1023.64 313.045 1025.02 314.5 1026.01 316.455C1026.99 318.394 1027.48 320.848 1027.48 323.818V346H1022.12V324.182C1022.12 321.439 1021.41 319.303 1019.98 317.773C1018.56 316.227 1016.6 315.455 1014.12 315.455C1012.41 315.455 1010.88 315.826 1009.53 316.568C1008.2 317.311 1007.14 318.394 1006.37 319.818C1005.6 321.242 1005.21 322.97 1005.21 325ZM1051.38 359.818C1048.78 359.818 1046.56 359.485 1044.69 358.818C1042.83 358.167 1041.28 357.303 1040.03 356.227C1038.81 355.167 1037.83 354.03 1037.1 352.818L1041.38 349.818C1041.86 350.455 1042.47 351.182 1043.22 352C1043.96 352.833 1044.97 353.553 1046.26 354.159C1047.56 354.78 1049.27 355.091 1051.38 355.091C1054.19 355.091 1056.52 354.409 1058.35 353.045C1060.19 351.682 1061.1 349.545 1061.1 346.636V339.545H1060.65C1060.25 340.182 1059.69 340.97 1058.97 341.909C1058.25 342.833 1057.22 343.659 1055.88 344.386C1054.54 345.098 1052.74 345.455 1050.47 345.455C1047.65 345.455 1045.12 344.788 1042.88 343.455C1040.65 342.121 1038.88 340.182 1037.58 337.636C1036.29 335.091 1035.65 332 1035.65 328.364C1035.65 324.788 1036.28 321.674 1037.53 319.023C1038.79 316.356 1040.54 314.295 1042.78 312.841C1045.03 311.371 1047.62 310.636 1050.56 310.636C1052.83 310.636 1054.63 311.015 1055.97 311.773C1057.31 312.515 1058.34 313.364 1059.06 314.318C1059.78 315.258 1060.34 316.03 1060.74 316.636H1061.28V311.091H1066.47V347C1066.47 350 1065.78 352.439 1064.42 354.318C1063.07 356.212 1061.25 357.598 1058.97 358.477C1056.69 359.371 1054.16 359.818 1051.38 359.818ZM1051.19 340.636C1053.34 340.636 1055.16 340.144 1056.65 339.159C1058.13 338.174 1059.26 336.758 1060.03 334.909C1060.81 333.061 1061.19 330.848 1061.19 328.273C1061.19 325.758 1060.81 323.538 1060.06 321.614C1059.3 319.689 1058.18 318.182 1056.69 317.091C1055.21 316 1053.38 315.455 1051.19 315.455C1048.92 315.455 1047.03 316.03 1045.51 317.182C1044.01 318.333 1042.88 319.879 1042.12 321.818C1041.38 323.758 1041.01 325.909 1041.01 328.273C1041.01 330.697 1041.39 332.841 1042.15 334.705C1042.92 336.553 1044.06 338.008 1045.56 339.068C1047.07 340.114 1048.95 340.636 1051.19 340.636Z" fill="black"/>
<path d="M1864.25 221.088C1861.94 221.088 1859.81 220.576 1857.85 219.552C1855.89 218.528 1854.9 216.651 1854.9 213.92C1854.9 210.592 1855.63 207.477 1857.08 204.576C1858.53 201.589 1860.75 197.877 1863.74 193.44C1866.81 188.832 1869.11 184.949 1870.65 181.792C1872.27 178.635 1873.08 175.221 1873.08 171.552C1873.08 167.371 1871.97 164.171 1869.75 161.952C1867.62 159.733 1864.72 158.624 1861.05 158.624C1854.22 158.624 1849.83 160.245 1847.86 163.488C1846.75 162.976 1846.2 162.123 1846.2 160.928C1846.2 159.819 1846.84 158.624 1848.12 157.344C1849.4 156.064 1851.15 154.997 1853.37 154.144C1855.67 153.291 1858.27 152.864 1861.18 152.864C1867.41 152.864 1872.14 154.613 1875.38 158.112C1878.71 161.611 1880.38 166.816 1880.38 173.728C1880.38 177.141 1879.57 180.341 1877.94 183.328C1876.41 186.229 1874.02 189.856 1870.78 194.208C1867.87 198.048 1865.7 201.248 1864.25 203.808C1862.88 206.283 1862.2 208.843 1862.2 211.488C1862.2 212.512 1862.63 213.28 1863.48 213.792C1864.42 214.304 1865.66 214.56 1867.19 214.56L1869.37 214.432C1870.14 214.432 1870.69 214.731 1871.03 215.328C1871.37 215.84 1871.54 216.779 1871.54 218.144C1871.54 219.083 1870.78 219.808 1869.24 220.32C1867.79 220.832 1866.13 221.088 1864.25 221.088ZM1862.71 244C1861.18 244 1859.98 243.573 1859.13 242.72C1858.27 241.867 1857.85 240.715 1857.85 239.264C1857.85 237.728 1858.27 236.533 1859.13 235.68C1860.07 234.827 1861.26 234.4 1862.71 234.4C1863.99 234.4 1864.93 234.955 1865.53 236.064C1866.13 237.088 1866.42 238.325 1866.42 239.776C1866.42 240.8 1866.08 241.781 1865.4 242.72C1864.72 243.573 1863.82 244 1862.71 244Z" fill="black"/>
</svg>
